<svg id="SvgjsSvg1377" width="256" height="256" xmlns="http://www.w3.org/2000/svg" version="1.1" xmlns:xlink="http://www.w3.org/1999/xlink" xmlns:svgjs="http://svgjs.com/svgjs"><defs id="SvgjsDefs1378"></defs><g id="SvgjsG1379"><svg xmlns="http://www.w3.org/2000/svg" viewBox="0 0 100 100" width="256" height="256"><path fill="#ed6d64" d="M18.334 72.807h23v23h-23zM59.334 72.807h23v23h-23z" class="colored6d64 svgShape"></path><path fill="#f1f1f2" d="M59.334 67.807h23v5h-23z" class="colorf1f1f2 svgShape"></path><path fill="#ffffff" d="M59.334 70.807h23v2h-23z" class="colorfff svgShape"></path><path fill="#ed6d64" d="m92.334 65.807-3-3-3 3h-4v30h14v-30z" class="colored6d64 svgShape"></path><path fill="#8d7e8a" d="M90.334 69.807h-2v-3a1 1 0 0 1 2 0v3z" class="color8d7e8a svgShape"></path><path fill="#7a6876" d="M89.334 65.807a1 1 0 0 0-1 1v2a1 1 0 0 1 2 0v-2a1 1 0 0 0-1-1z" class="color7a6876 svgShape"></path><path fill="#8d7e8a" d="M93.334 84.796h-8v-7a4 4 0 0 1 8 0v7zm-.052 11h-8v-4a4 4 0 0 1 8 0v4z" class="color8d7e8a svgShape"></path><path fill="#7a6876" d="M89.334 73.796a4 4 0 0 0-4 4v2a4 4 0 0 1 8 0v-2a4 4 0 0 0-4-4zm-.052 14a4 4 0 0 0-4 4v2a4 4 0 0 1 8 0v-2a4 4 0 0 0-4-4z" class="color7a6876 svgShape"></path><path fill="#8d7e8a" d="M77.834 81.807h-2.5v-4.75a1.25 1.25 0 0 1 2.5 0v4.75z" class="color8d7e8a svgShape"></path><path fill="#7a6876" d="M76.584 75.807c-.69 0-1.25.56-1.25 1.25v2a1.25 1.25 0 0 1 2.5 0v-2a1.25 1.25 0 0 0-1.25-1.25z" class="color7a6876 svgShape"></path><path fill="#8d7e8a" d="M66.334 81.807h-2.5v-4.75a1.25 1.25 0 0 1 2.5 0v4.75zm4.5 0h-2.5v-4.75a1.25 1.25 0 0 1 2.5 0v4.75z" class="color8d7e8a svgShape"></path><path fill="#7a6876" d="M65.084 75.807c-.69 0-1.25.56-1.25 1.25v2a1.25 1.25 0 0 1 2.5 0v-2a1.25 1.25 0 0 0-1.25-1.25zm4.5 0c-.69 0-1.25.56-1.25 1.25v2a1.25 1.25 0 0 1 2.5 0v-2a1.25 1.25 0 0 0-1.25-1.25z" class="color7a6876 svgShape"></path><path fill="#8d7e8a" d="M61.334 95.501v-4.2a2.5 2.5 0 1 1 5 0v4.2m2 0v-4.2a2.5 2.5 0 1 1 5 0v4.2m2 0v-4.2a2.5 2.5 0 1 1 5 0v4.2" class="color8d7e8a svgShape"></path><path fill="#7a6876" d="M63.834 88.801a2.5 2.5 0 0 0-2.5 2.5v2a2.5 2.5 0 1 1 5 0v-2a2.5 2.5 0 0 0-2.5-2.5zm7 0a2.5 2.5 0 0 0-2.5 2.5v2a2.5 2.5 0 1 1 5 0v-2a2.5 2.5 0 0 0-2.5-2.5zm7 0a2.5 2.5 0 0 0-2.5 2.5v2a2.5 2.5 0 1 1 5 0v-2a2.5 2.5 0 0 0-2.5-2.5z" class="color7a6876 svgShape"></path><path fill="#ed6d64" d="m14.334 65.807-3-3-3 3h-4v30h14v-30z" class="colored6d64 svgShape"></path><path fill="#8d7e8a" d="M15.334 84.796h-8v-7a4 4 0 0 1 8 0v7zm7.5-2.989h-2.5v-4.75a1.25 1.25 0 0 1 2.5 0v4.75zm2.5 0h-2.5v-4.75a1.25 1.25 0 0 1 2.5 0v4.75zm4.5 0h-2.5v-4.75a1.25 1.25 0 0 1 2.5 0v4.75zm2.5 0h-2.5v-4.75a1.25 1.25 0 0 1 2.5 0v4.75zm4.5 0h-2.5v-4.75a1.25 1.25 0 0 1 2.5 0v4.75zm2.5 0h-2.5v-4.75a1.25 1.25 0 0 1 2.5 0v4.75z" class="color8d7e8a svgShape"></path><path fill="#7a6876" d="M11.334 73.796a4 4 0 0 0-4 4v2a4 4 0 0 1 8 0v-2a4 4 0 0 0-4-4zm10.25 2.011c-.69 0-1.25.56-1.25 1.25v2a1.25 1.25 0 0 1 2.5 0v-2a1.25 1.25 0 0 0-1.25-1.25zm2.5 0c-.69 0-1.25.56-1.25 1.25v2a1.25 1.25 0 0 1 2.5 0v-2a1.25 1.25 0 0 0-1.25-1.25zm4.5 0c-.69 0-1.25.56-1.25 1.25v2a1.25 1.25 0 0 1 2.5 0v-2a1.25 1.25 0 0 0-1.25-1.25zm2.5 0c-.69 0-1.25.56-1.25 1.25v2a1.25 1.25 0 0 1 2.5 0v-2a1.25 1.25 0 0 0-1.25-1.25zm7 0c-.69 0-1.25.56-1.25 1.25v2a1.25 1.25 0 0 1 2.5 0v-2a1.25 1.25 0 0 0-1.25-1.25zm-2.5 0c-.69 0-1.25.56-1.25 1.25v2a1.25 1.25 0 0 1 2.5 0v-2a1.25 1.25 0 0 0-1.25-1.25z" class="color7a6876 svgShape"></path><path fill="#ed6d64" d="M41.334 38.807h18v57h-18z" class="colored6d64 svgShape"></path><path fill="#8d7e8a" d="M55.282 95.796h-10v-7a5 5 0 0 1 10 0v7z" class="color8d7e8a svgShape"></path><path fill="#7a6876" d="M50.282 83.796a5 5 0 0 0-5 5v2a5 5 0 0 1 10 0v-2a5 5 0 0 0-5-5z" class="color7a6876 svgShape"></path><path fill="#f48575" d="M57.334 38.807h2v57h-2zM41.334 38.807h2v57h-2zM4.334 65.807h2v30h-2zM16.334 65.807h2v30h-2zM82.334 65.807h2v30h-2zM94.334 65.807h2v30h-2z" class="colorf48575 svgShape"></path><path fill="#f1f1f2" d="M18.334 67.807h23v5h-23zM4.334 65.807l3-9h8l3 9h-4l-3-3-3 3z" class="colorf1f1f2 svgShape"></path><path fill="#ffffff" d="M18.782 70.807H40.59v2H18.782z" class="colorfff svgShape"></path><path fill="#e0605a" d="M41.334 38.807h18v2h-18z" class="colore0605a svgShape"></path><path fill="#ed6d64" d="M47.334 47.807v2l2 1v2h2v-2l2-1v-2z" class="colored6d64 svgShape"></path><path fill="#f48575" d="M49.334 49.807v-2h-2v2l3 1v2h1v-2z" class="colorf48575 svgShape"></path><path fill="#f48575" d="M51.334 47.807v2l-2 1v2h1v-2l3-1v-2z" class="colorf48575 svgShape"></path><path fill="#8d7e8a" d="M49.334 65.807h-3v-7.5a1.5 1.5 0 0 1 3 0v7.5zm5 0h-3v-7.5a1.5 1.5 0 0 1 3 0v7.5zm-4 15h-4v-8a2 2 0 1 1 4 0v8zm4 0h-4v-8a2 2 0 1 1 4 0v8z" class="color8d7e8a svgShape"></path><path fill="#e0605a" d="M80.334 72.807h2v23h-2zM59.334 72.807h2v23h-2zM39.334 72.807h2v23h-2zM18.334 72.807h2v23h-2z" class="colore0605a svgShape"></path><path fill="#8d7e8a" d="M63.834 81.807h-2.5v-4.75a1.25 1.25 0 0 1 2.5 0v4.75zm9.5 0h-2.5v-4.75a1.25 1.25 0 0 1 2.5 0v4.75zm7 0h-2.5v-4.75a1.25 1.25 0 0 1 2.5 0v4.75zM61.334 83.796h2.5v2.5h-2.5zM63.834 83.796h2.5v2.5h-2.5zM68.334 83.796h2.5v2.5h-2.5zM70.834 83.796h2.5v2.5h-2.5zM75.334 83.796h2.5v2.5h-2.5zM77.834 83.796h2.5v2.5h-2.5zM20.334 83.796h2.5v2.5h-2.5zM22.834 83.796h2.5v2.5h-2.5zM27.334 83.796h2.5v2.5h-2.5zM29.834 83.796h2.5v2.5h-2.5zM34.334 83.796h2.5v2.5h-2.5zM36.834 83.796h2.5v2.5h-2.5z" class="color8d7e8a svgShape"></path><path fill="#e0605a" d="m92.334 65.807-3-3-3 3h-4v2h4l3-3 3 3h4v-2zM14.334 65.807l-3-3-3 3h-4v2h4l3-3 3 3h4v-2z" class="colore0605a svgShape"></path><path fill="#8d7e8a" d="M12.334 69.807h-2v-3a1 1 0 0 1 2 0v3z" class="color8d7e8a svgShape"></path><path fill="#7a6876" d="M11.334 65.807a1 1 0 0 0-1 1v2a1 1 0 0 1 2 0v-2a1 1 0 0 0-1-1z" class="color7a6876 svgShape"></path><path fill="#f1f1f2" d="M45.781 38.807h-4.447l6-19h6l6 19h-3.553" class="colorf1f1f2 svgShape"></path><path fill="#f1f1f2" d="M43.251 26.807h14v6h-14z" class="colorf1f1f2 svgShape"></path><path fill="#ed6d64" d="M45.387 40.807v-5h1.917l3.083-8 2.917 8h2.083v5" class="colored6d64 svgShape"></path><path fill="#e0605a" d="m49.304 35.807 2.056-5.334-.973-2.666-3.083 8h-1.917v5h2v-5z" class="colore0605a svgShape"></path><path fill="#e0605a" d="M53.387 35.807v5h2v-5h-2zm-2.083 0h2l-2.917-8-1.028 2.667 1.945 5.333z" class="colore0605a svgShape"></path><circle cx="50.334" cy="42.807" r="3" fill="#ececed" class="colorececed svgShape"></circle><path fill="#ffffff" d="M50.334 39.807c-.171 0-.337.023-.5.05 1.418.239 2.5 1.464 2.5 2.95s-1.082 2.71-2.5 2.95c.163.028.329.05.5.05a3 3 0 1 0 0-6z" class="colorfff svgShape"></path><path fill="#d9d4d8" d="M48.334 42.807a2.995 2.995 0 0 1 2.5-2.95 2.942 2.942 0 0 0-.5-.05 3 3 0 1 0 0 6c.171 0 .337-.023.5-.05a2.996 2.996 0 0 1-2.5-2.95z" class="colord9d4d8 svgShape"></path><path fill="#8d7e8a" d="M15.282 95.796h-8v-4a4 4 0 0 1 8 0v4z" class="color8d7e8a svgShape"></path><path fill="#7a6876" d="M11.282 87.796a4 4 0 0 0-4 4v2a4 4 0 0 1 8 0v-2a4 4 0 0 0-4-4z" class="color7a6876 svgShape"></path><path fill="#8d7e8a" d="M20.334 95.501v-4.2a2.5 2.5 0 1 1 5 0v4.2m2 0v-4.2a2.5 2.5 0 1 1 5 0v4.2m2 0v-4.2a2.5 2.5 0 1 1 5 0v4.2" class="color8d7e8a svgShape"></path><path fill="#7a6876" d="M22.834 88.801a2.5 2.5 0 0 0-2.5 2.5v2a2.5 2.5 0 1 1 5 0v-2a2.5 2.5 0 0 0-2.5-2.5zm7 0a2.5 2.5 0 0 0-2.5 2.5v2a2.5 2.5 0 1 1 5 0v-2a2.5 2.5 0 0 0-2.5-2.5zm7 0a2.5 2.5 0 0 0-2.5 2.5v2a2.5 2.5 0 1 1 5 0v-2a2.5 2.5 0 0 0-2.5-2.5z" class="color7a6876 svgShape"></path><path fill="#f1f1f2" d="m82.281 65.807 3-9h8l3 9h-4l-3-3-2.999 3z" class="colorf1f1f2 svgShape"></path><path fill="#ffffff" d="m92.282 63.807-3-3-3 3h-3.334l-.666 2h4l3-3 3 3h4l-.667-2z" class="colorfff svgShape"></path><path fill="#ffffff" d="m85.282 56.807-3 9h2l3-9zM90.282 63.807l2 2h2l-3-3zM93.282 56.807h-2l3 9h2zM14.282 63.807l-3-3-3 3H4.948l-.666 2h4l3-3 3 3h4l-.667-2z" class="colorfff svgShape"></path><path fill="#ffffff" d="m7.282 56.807-3 9h2l3-9zM15.282 56.807h-2l3 9h2zM87.282 62.807l-3 3h2l2-2z" class="colorfff svgShape"></path><path fill="#d9d4d8" d="M39.334 67.807h2v5h-2zM18.334 67.807h2v5h-2zM80.334 67.807h2v5h-2zM59.334 67.807h2v5h-2z" class="colord9d4d8 svgShape"></path><path fill="#ececed" d="M51.334 60.807v2h-2v-2z" class="colorececed svgShape"></path><path fill="#7a6876" d="M47.834 56.807a1.5 1.5 0 0 0-1.5 1.5v2a1.5 1.5 0 0 1 3 0v-2a1.5 1.5 0 0 0-1.5-1.5zm5 0a1.5 1.5 0 0 0-1.5 1.5v2a1.5 1.5 0 0 1 3 0v-2a1.5 1.5 0 0 0-1.5-1.5zm-4.5 14a2 2 0 0 0-2 2v2a2 2 0 1 1 4 0v-2a2 2 0 0 0-2-2zm4 0a2 2 0 0 0-2 2v2a2 2 0 1 1 4 0v-2a2 2 0 0 0-2-2zm10.25 5c-.69 0-1.25.56-1.25 1.25v2a1.25 1.25 0 0 1 2.5 0v-2a1.25 1.25 0 0 0-1.25-1.25zm9.5 0c-.69 0-1.25.56-1.25 1.25v2a1.25 1.25 0 0 1 2.5 0v-2a1.25 1.25 0 0 0-1.25-1.25zm7 0c-.69 0-1.25.56-1.25 1.25v2a1.25 1.25 0 0 1 2.5 0v-2a1.25 1.25 0 0 0-1.25-1.25z" class="color7a6876 svgShape"></path><path fill="#594555" d="M98.282 95.182h-1.5V66.211h.5a.5.5 0 0 0 0-1h-.632l-2.667-8h.308a.5.5 0 0 0 0-1h-1.502v-4.5a.5.5 0 0 0-1 0v1.5h-5v-1.5a.5.5 0 0 0-1 0v4.5h-1.494a.5.5 0 0 0 0 1h.29l-2.661 7.971h-.641a.5.5 0 0 0 0 1h.5v1h-22v-28.5c0-.035-.013-.065-.02-.098-.003-.018.002-.036-.004-.053l-1.988-6.294c.002-.019.011-.036.011-.055v-7.5a.5.5 0 0 0-1 0v1.5h-.923l-1.895-6h.318a.5.5 0 0 0 0-1h-.485V16.707l-.015-2a.5.5 0 0 0-.5-.496h-.004a.5.5 0 0 0-.496.504l.011 1.496h-2.011v-5.529a.5.5 0 0 0-1 0v5.529h-1.989l-.011-1.504a.5.5 0 0 0-.5-.496h-.004a.5.5 0 0 0-.496.504l.015 2v2.467h-.515a.5.5 0 0 0 0 1h.318l-1.895 6h-.923v-1.5a.5.5 0 0 0-1 0v7.5c0 .02.009.036.011.055l-1.988 6.294c-.005.017 0 .035-.004.053-.007.033-.02.063-.02.098v28.5h-22v-.971h.528a.5.5 0 0 0 0-1h-.653l-2.667-8h.308a.5.5 0 0 0 0-1h-1.502v-4.5a.5.5 0 0 0-1 0v1.5h-5v-1.5a.5.5 0 0 0-1 0v4.5H6.303a.5.5 0 0 0 0 1h.29l-2.671 8h-.631a.5.5 0 0 0 0 1h.491v28.971h-1.5a.5.5 0 0 0 0 1h96a.5.5 0 0 0 0-1zm-9.507-40.971h1v1.971h-1v-1.971zm3.014 1.971h-1.015v-1.971h1.015v1.971zm-4.014-1.971v1.971h-.985v-1.971h.985zm5.154 3 2.667 8h-3.097l-2.854-2.881a.499.499 0 0 0-.354-.148h-.001a.499.499 0 0 0-.354.147l-2.868 2.882h-1.639c-.047-.014-.094-.029-.145-.029H82.98l2.661-7.971h7.288zM75.782 81.182v-4.25c0-.413.337-.75.75-.75s.75.337.75.75v4.25h-1.5zm2.5-4.25c0-.413.337-.75.75-.75s.75.337.75.75v4.25h-1.5v-4.25zm.75-1.75c-.49 0-.932.204-1.25.529a1.74 1.74 0 0 0-1.25-.529c-.965 0-1.75.785-1.75 1.75v4.25h-1v-4.25c0-.965-.785-1.75-1.75-1.75-.49 0-.932.204-1.25.529a1.74 1.74 0 0 0-1.25-.529c-.965 0-1.75.785-1.75 1.75v4.25h-1v-4.25c0-.965-.785-1.75-1.75-1.75-.49 0-.932.204-1.25.529a1.74 1.74 0 0 0-1.25-.529c-.965 0-1.75.785-1.75 1.75v4.25h-1v-8h22v8h-1v-4.25c0-.965-.785-1.75-1.75-1.75zm-10.25 6v-4.25c0-.413.337-.75.75-.75s.75.337.75.75v4.25h-1.5zm2.5-4.25c0-.413.337-.75.75-.75s.75.337.75.75v4.25h-1.5v-4.25zm-9.5 4.25v-4.25c0-.413.337-.75.75-.75s.75.337.75.75v4.25h-1.5zm2.5-4.25c0-.413.337-.75.75-.75s.75.337.75.75v4.25h-1.5v-4.25zm-17.5 3.25v-7.5c0-.827.673-1.5 1.5-1.5s1.5.673 1.5 1.5v7.5h-3zm4-7.5c0-.827.673-1.5 1.5-1.5s1.5.673 1.5 1.5v7.5h-3v-7.5zm1.5-2.5c-.821 0-1.544.403-2 1.015a2.491 2.491 0 0 0-2-1.015 2.502 2.502 0 0 0-2.5 2.5v7.5h-4v-19h4v4h-.5a.5.5 0 0 0-.5.5v2a.5.5 0 0 0 .5.5h10a.5.5 0 0 0 .5-.5v-2a.5.5 0 0 0-.5-.5h-.5v-4h4v19h-4v-7.5c0-1.379-1.121-2.5-2.5-2.5zm-17.5 11v-4.25c0-.413.337-.75.75-.75s.75.337.75.75v4.25h-1.5zm2.5-4.25c0-.413.337-.75.75-.75s.75.337.75.75v4.25h-1.5v-4.25zm.75-1.75c-.49 0-.932.204-1.25.529a1.74 1.74 0 0 0-1.25-.529c-.965 0-1.75.785-1.75 1.75v4.25h-1v-4.25c0-.965-.785-1.75-1.75-1.75-.49 0-.932.204-1.25.529a1.74 1.74 0 0 0-1.25-.529c-.965 0-1.75.785-1.75 1.75v4.25h-1v-4.25c0-.965-.785-1.75-1.75-1.75-.49 0-.932.204-1.25.529a1.74 1.74 0 0 0-1.25-.529c-.965 0-1.75.785-1.75 1.75v4.25h-1v-8h22v8h-1v-4.25c0-.965-.785-1.75-1.75-1.75zm-10.25 6v-4.25c0-.413.337-.75.75-.75s.75.337.75.75v4.25h-1.5zm2.5-4.25c0-.413.337-.75.75-.75s.75.337.75.75v4.25h-1.5v-4.25zm-9.5 4.25v-4.25c0-.413.337-.75.75-.75s.75.337.75.75v4.25h-1.5zm2.5-4.25c0-.413.337-.75.75-.75s.75.337.75.75v4.25h-1.5v-4.25zm18.5-37.75h3.5a.5.5 0 0 0 .5-.5v-2.5h1.417l.008-.002c.025-.001.048-.01.072-.015a.494.494 0 0 0 .383-.3l.003-.005 2.604-6.756 2.459 6.747c.001.003.004.004.006.007a.49.49 0 0 0 .21.243.485.485 0 0 0 .254.079h1.584v2.495l-.001.005a.5.5 0 0 0 .5.5h3.501v.092a1.483 1.483 0 0 0-.5-.092c-.385 0-.734.15-1 .39a1.489 1.489 0 0 0-1-.39c-.827 0-1.5.673-1.5 1.5v1a.5.5 0 0 0 1 0v-1c0-.275.225-.5.5-.5s.5.225.5.5v1a.5.5 0 0 0 1 0v-1c0-.275.225-.5.5-.5s.5.225.5.5v6.5h-17v-6.5c0-.275.225-.5.5-.5s.5.225.5.5v1a.5.5 0 0 0 1 0v-1c0-.275.225-.5.5-.5s.5.225.5.5v1a.5.5 0 0 0 1 0v-1c0-.827-.673-1.5-1.5-1.5-.385 0-.734.15-1 .39a1.489 1.489 0 0 0-1-.39c-.176 0-.343.036-.5.092v-.09zm10 28v-1h1v1h-1zm-2 0v-1h1v1h-1zm-2 0v-1h1v1h-1zm-2 0v-1h1v1h-1zm1-9a1 1 0 0 1 2 0v7h-2v-7zm4 7h-1v-2h1v2zm0-3h-1v-1h1v1zm3 4h1v1h-1v-1zm-2-1v-7a1 1 0 0 1 2 0v7h-2zm1-9c-1.103 0-2 .897-2 2v2h-1v-2c0-1.103-.897-2-2-2s-2 .897-2 2v2h-4v-12h5v1.5a.5.5 0 0 0 .276.447l1.724.861v1.691a.5.5 0 0 0 .5.5h.5v2a.5.5 0 0 0 0 1h1a.5.5 0 0 0 0-1v-2h.5a.5.5 0 0 0 .5-.5V50.99l1.724-.861a.5.5 0 0 0 .276-.447v-1.5h5v12h-4v-2c0-1.103-.897-2-2-2zm-3-4v-1.5a.5.5 0 0 0-.276-.447l-1.724-.861v-1.191h5v1.191l-1.724.861a.5.5 0 0 0-.276.447v1.5h-1zm32 16v4h-22v-4h22zm-25-41v1.924l-.608-1.924h.608zm-8.985-9.971h.985v1.971h-.985v-1.971zm2.985 0v1.971h-1v-1.971h1zm2.015 1.971h-1.015v-1.971h1.015v1.971zm-9.015 9.5v-1.5h.608l-.608 1.924v-.424zm3.857-8.471h5.286L58.6 38.182h-2.817v-2.5a.5.5 0 0 0-.5-.5h-1.734l-2.796-7.671a.5.5 0 0 0-.465-.329h-.005a.5.5 0 0 0-.467.32l-2.96 7.68h-1.573a.5.5 0 0 0-.5.5v2.5h-2.817l5.673-17.971zm-6.857 47.971v4h-22v-4h22zm-30-13.971h1v1.971h-1v-1.971zm3.015 1.971h-1.015v-1.971h1.015v1.971zm-4.015-1.971v1.971h-.985v-1.971h.985zm-2.134 3h7.289l2.667 8h-3.098l-2.854-2.881a.499.499 0 0 0-.354-.148h-.001a.499.499 0 0 0-.354.147l-2.868 2.882H4.977l2.671-8zM4.782 69.682v-1c0-.275.225-.5.5-.5s.5.225.5.5v1a.5.5 0 0 0 1 0v-1c0-.275.225-.5.5-.5s.5.225.5.5v1a.5.5 0 0 0 1 0v-1c0-.827-.673-1.5-1.5-1.5-.385 0-.734.15-1 .39a1.489 1.489 0 0 0-1-.39c-.176 0-.343.036-.5.092v-1.063h3.5a.499.499 0 0 0 .354-.147l2.659-2.672 2.646 2.671a.5.5 0 0 0 .355.148h3.486v1.063a1.483 1.483 0 0 0-.5-.092c-.385 0-.734.15-1 .39a1.489 1.489 0 0 0-1-.39c-.827 0-1.5.673-1.5 1.5v1a.5.5 0 0 0 1 0v-1c0-.275.225-.5.5-.5s.5.225.5.5v1a.5.5 0 0 0 1 0v-1c0-.275.225-.5.5-.5s.5.225.5.5v26.5H15.73v-3.511c0-2.481-2.019-4.5-4.5-4.5s-4.5 2.019-4.5 4.5v3.511H4.782v-25.5zM7.73 95.171v-3.5c0-1.93 1.57-3.5 3.5-3.5s3.5 1.57 3.5 3.5v3.5h-7zm11.052-12.989h22v13h-1v-4.006c0-1.654-1.346-3-3-3s-3 1.346-3 3v4.006h-1v-4.006c0-1.654-1.346-3-3-3s-3 1.346-3 3v4.006h-1v-4.006c0-1.654-1.346-3-3-3s-3 1.346-3 3v4.006h-1v-13zm20 13h-4v-4.006c0-1.103.897-2 2-2s2 .897 2 2v4.006zm-7 0h-4v-4.006c0-1.103.897-2 2-2s2 .897 2 2v4.006zm-7 0h-4v-4.006c0-1.103.897-2 2-2s2 .897 2 2v4.006zm17-14h17v14H55.73v-6.511c0-3.032-2.468-5.5-5.5-5.5s-5.5 2.468-5.5 5.5v6.511h-2.947v-14zm3.948 13.989v-6.5c0-2.481 2.019-4.5 4.5-4.5s4.5 2.019 4.5 4.5v6.5h-9zm14.052-12.989h22v13h-1v-4.006c0-1.654-1.346-3-3-3s-3 1.346-3 3v4.006h-1v-4.006c0-1.654-1.346-3-3-3s-3 1.346-3 3v4.006h-1v-4.006c0-1.654-1.346-3-3-3s-3 1.346-3 3v4.006h-1v-13zm20 13h-4v-4.006c0-1.103.897-2 2-2s2 .897 2 2v4.006zm-7 0h-4v-4.006c0-1.103.897-2 2-2s2 .897 2 2v4.006zm-7 0h-4v-4.006c0-1.103.897-2 2-2s2 .897 2 2v4.006zm19.948-.011v-3.5c0-1.93 1.57-3.5 3.5-3.5s3.5 1.57 3.5 3.5v3.5h-7zm8 .011v-3.511c0-2.481-2.019-4.5-4.5-4.5s-4.5 2.019-4.5 4.5v3.511h-1.947v-26.5c0-.275.225-.5.5-.5s.5.225.5.5v1a.5.5 0 0 0 1 0v-1c0-.275.225-.5.5-.5s.5.225.5.5v1a.5.5 0 0 0 1 0v-1c0-.827-.673-1.5-1.5-1.5-.385 0-.734.15-1 .39a1.489 1.489 0 0 0-1-.39c-.176 0-.343.036-.5.092v-1.063h3.492a.499.499 0 0 0 .354-.147l2.659-2.672 2.646 2.671a.5.5 0 0 0 .355.148H95.782v1.063a1.483 1.483 0 0 0-.5-.092c-.385 0-.734.15-1 .39a1.489 1.489 0 0 0-1-.39c-.827 0-1.5.673-1.5 1.5v1a.5.5 0 0 0 1 0v-1c0-.275.225-.5.5-.5s.5.225.5.5v1a.5.5 0 0 0 1 0v-1c0-.275.225-.5.5-.5s.5.225.5.5v26.5H93.73z" class="color594555 svgShape"></path><path fill="#594555" d="M50.282 46.182c1.93 0 3.5-1.57 3.5-3.5s-1.57-3.5-3.5-3.5-3.5 1.57-3.5 3.5 1.571 3.5 3.5 3.5zm0-6c1.379 0 2.5 1.121 2.5 2.5s-1.121 2.5-2.5 2.5-2.5-1.121-2.5-2.5 1.121-2.5 2.5-2.5z" class="color594555 svgShape"></path><path fill="#594555" d="M50.282 43.182c.009 0 .017-.005.026-.005.009 0 .017.005.026.005h1.447a.5.5 0 0 0 0-1h-1v-.5a.5.5 0 0 0-1 0v1c.001.276.225.5.501.5zm43.31 33.264c-.537-1.884-2.255-3.275-4.309-3.275-2.053 0-3.77 1.39-4.308 3.273a.48.48 0 0 0-.058.188c-.08.335-.133.68-.133 1.04v7a.5.5 0 0 0 .5.5h8a.5.5 0 0 0 .5-.5v-7a4.48 4.48 0 0 0-.136-1.049.517.517 0 0 0-.056-.177zm-7.81 1.225c0-.168.027-.328.05-.489h.949v1h-.999v-.511zm1.999-.489h1v1h-1v-1zm1 2v4.989h-1v-4.989h1zm1 0h1v4.989h-1v-4.989zm0-1v-1h1v1h-1zm2-1h.951c.023.161.05.322.05.489v.511h-1.001v-1zm-2.499-3.011c1.395 0 2.593.827 3.155 2.011h-6.31a3.495 3.495 0 0 1 3.155-2.011zm-3.5 5.011h.999v4.989h-.999v-4.989zm5.999 4.989v-4.989h1.001v4.989h-1.001zm-84.499 1h8a.5.5 0 0 0 .5-.5v-7a4.48 4.48 0 0 0-.136-1.049.477.477 0 0 0-.055-.176c-.537-1.884-2.255-3.275-4.309-3.275-2.053 0-3.77 1.39-4.308 3.273a.48.48 0 0 0-.058.188c-.08.335-.133.68-.133 1.04v7a.498.498 0 0 0 .499.499zm7.5-7.5v.511h-1.001v-1h.951c.024.161.05.321.05.489zm-2.001.511h-1v-1h1v1zm-1 1h1v4.989h-1v-4.989zm-1 4.989h-1v-4.989h1v4.989zm0-5.989h-1v-1h1v1zm-2 0h-.999v-.511c0-.168.027-.328.05-.489h.949v1zm-.999 1h.999v4.989h-.999v-4.989zm5.999 4.989v-4.989h1.001v4.989h-1.001zm-2.499-10c1.395 0 2.593.827 3.155 2.011h-6.31a3.495 3.495 0 0 1 3.155-2.011zm50 12.5h5a.5.5 0 0 0 .5-.5v-2.5a.5.5 0 0 0-.5-.5h-5a.5.5 0 0 0-.5.5v2.5a.5.5 0 0 0 .5.5zm4.5-1h-1.5v-1.5h1.5v1.5zm-4-1.5h1.5v1.5h-1.5v-1.5zm6.5 2.5h5a.5.5 0 0 0 .5-.5v-2.5a.5.5 0 0 0-.5-.5h-5a.5.5 0 0 0-.5.5v2.5a.5.5 0 0 0 .5.5zm4.5-1h-1.5v-1.5h1.5v1.5zm-4-1.5h1.5v1.5h-1.5v-1.5zm6.5 2.5h5a.5.5 0 0 0 .5-.5v-2.5a.5.5 0 0 0-.5-.5h-5a.5.5 0 0 0-.5.5v2.5a.5.5 0 0 0 .5.5zm4.5-1h-1.5v-1.5h1.5v1.5zm-4-1.5h1.5v1.5h-1.5v-1.5zm-65.5-13.989h2a.5.5 0 0 0 .5-.5v-3c0-.827-.673-1.5-1.5-1.5s-1.5.673-1.5 1.5v3a.5.5 0 0 0 .5.5zm.5-3.5c0-.275.225-.5.5-.5s.5.225.5.5v2.5h-1v-2.5zm77.5 3.5h2a.5.5 0 0 0 .5-.5v-3c0-.827-.673-1.5-1.5-1.5s-1.5.673-1.5 1.5v3a.5.5 0 0 0 .5.5zm.5-3.5c0-.275.225-.5.5-.5s.5.225.5.5v2.5h-1v-2.5zm-68.5 19.989h5a.5.5 0 0 0 .5-.5v-2.5a.5.5 0 0 0-.5-.5h-5a.5.5 0 0 0-.5.5v2.5a.5.5 0 0 0 .5.5zm4.5-1h-1.5v-1.5h1.5v1.5zm-4-1.5h1.5v1.5h-1.5v-1.5zm6.5 2.5h5a.5.5 0 0 0 .5-.5v-2.5a.5.5 0 0 0-.5-.5h-5a.5.5 0 0 0-.5.5v2.5a.5.5 0 0 0 .5.5zm4.5-1h-1.5v-1.5h1.5v1.5zm-4-1.5h1.5v1.5h-1.5v-1.5zm6.5 2.5h5a.5.5 0 0 0 .5-.5v-2.5a.5.5 0 0 0-.5-.5h-5a.5.5 0 0 0-.5.5v2.5a.5.5 0 0 0 .5.5zm4.5-1h-1.5v-1.5h1.5v1.5zm-4-1.5h1.5v1.5h-1.5v-1.5z" class="color594555 svgShape"></path></svg></g></svg>