<svg id="SvgjsSvg1220" width="256" height="256" xmlns="http://www.w3.org/2000/svg" version="1.1" xmlns:xlink="http://www.w3.org/1999/xlink" xmlns:svgjs="http://svgjs.com/svgjs"><defs id="SvgjsDefs1221"></defs><g id="SvgjsG1222"><svg xmlns="http://www.w3.org/2000/svg" data-name="Layer 1" viewBox="0 0 128 128" width="256" height="256"><path fill="#98e07e" d="M0 95h128v33H0z" class="color98e07e svgShape"></path><path fill="#d68751" d="M54.5 94.625 31.999 128h64.002L73.75 94.625H54.5z" class="colord68751 svgShape"></path><path fill="#2d4356" d="M126 93H98.5v-6a2 2 0 0 0 0-4V69a2 2 0 0 0 0-4V47.31a1.84 1.84 0 0 0 .29-.42l4-8a1.975 1.975 0 0 0-.09-1.94A1.997 1.997 0 0 0 101 36h-2v-6a2.006 2.006 0 0 0-2-2h-2V14.42a2 2 0 0 0-4 0V16h-9.06A9.013 9.013 0 0 0 74 8.06V4a3.999 3.999 0 0 0-4-4H58a3.999 3.999 0 0 0-4 4v4.06A9.013 9.013 0 0 0 46.06 16H37v-1.58a2 2 0 0 0-4 0V28h-2a2.006 2.006 0 0 0-2 2v6h-2a1.997 1.997 0 0 0-1.7.95 1.975 1.975 0 0 0-.09 1.94l4 8a1.84 1.84 0 0 0 .29.42v17.76a1.992 1.992 0 0 0 0 3.86v14.14a1.992 1.992 0 0 0 0 3.86V93H2a2 2 0 0 0 0 4h49.03l-20.64 27.81a2.002 2.002 0 0 0 3.22 2.38L56.01 97h15.98l22.4 30.19a2.002 2.002 0 1 0 3.22-2.38L76.97 97H126a2 2 0 0 0 0-4ZM58 4h12v4H58Zm-3 8h18a5.009 5.009 0 0 1 4.9 4H50.1a5.009 5.009 0 0 1 4.9-4Zm-18 8h54v8H37Zm-4 12h62v4H33Zm12 61H33.5v-6H45Zm0-10H33.5V69H45Zm26 10H57V71a7 7 0 0 1 14 0Zm8 0h-4V71a11 11 0 0 0-22 0v22h-4V56h30Zm15.5 0H83v-6h11.5Zm0-10H83V69h11.5Zm0-18H83V54a2.006 2.006 0 0 0-2-2H47a2.006 2.006 0 0 0-2 2v11H33.5V48h61Zm1.26-21H32.24l-2-4h67.52Z" class="color2d4356 svgShape"></path><path fill="#fc785e" d="M79 56v37h-4V71a11 11 0 0 0-22 0v22h-4V56Z" class="colorfc785e svgShape"></path><path fill="#e1ebf4" d="M33.5 69H45v14H33.5z" class="colore1ebf4 svgShape"></path><path fill="#ffdb80" d="M33.5 87H45v6H33.5zM83 87h11.5v6H83z" class="colorffdb80 svgShape"></path><path fill="#e1ebf4" d="M83 69h11.5v14H83z" class="colore1ebf4 svgShape"></path><path fill="#ffdb80" d="M94.5 48v17H83V54a2.006 2.006 0 0 0-2-2H47a2.006 2.006 0 0 0-2 2v11H33.5V48Z" class="colorffdb80 svgShape"></path><path fill="#fc785e" d="m97.76 40-2 4H32.24l-2-4h67.52z" class="colorfc785e svgShape"></path><path fill="#ffdb80" d="M33 32h62v4H33z" class="colorffdb80 svgShape"></path><path fill="#e1ebf4" d="M58 4h12v4H58z" class="colore1ebf4 svgShape"></path><path fill="#ffdb80" d="M77.9 16H50.1a5.009 5.009 0 0 1 4.9-4h18a5.009 5.009 0 0 1 4.9 4Z" class="colorffdb80 svgShape"></path><path fill="#fc785e" d="M37 20h54v8H37z" class="colorfc785e svgShape"></path><path fill="#2d4356" d="M64 102a2 2 0 0 0-2 2v2a2 2 0 0 0 4 0v-2a2 2 0 0 0-2-2zm0 9.2a2 2 0 0 0-2 2v3.6a2 2 0 0 0 4 0v-3.6a2 2 0 0 0-2-2zm0 10.8a2 2 0 0 0-2 2v2a2 2 0 0 0 4 0v-2a2 2 0 0 0-2-2z" class="color2d4356 svgShape"></path><circle cx="39" cy="55" r="2" fill="#2d4356" class="color2d4356 svgShape"></circle><circle cx="89" cy="55" r="2" fill="#2d4356" class="color2d4356 svgShape"></circle><circle cx="43" cy="24" r="2" fill="#2d4356" class="color2d4356 svgShape"></circle><circle cx="85" cy="24" r="2" fill="#2d4356" class="color2d4356 svgShape"></circle><circle cx="39" cy="76" r="2" fill="#2d4356" class="color2d4356 svgShape"></circle><circle cx="89" cy="76" r="2" fill="#2d4356" class="color2d4356 svgShape"></circle><path fill="#2d4356" d="M74 22H54a2 2 0 0 0 0 4h20a2 2 0 0 0 0-4Z" class="color2d4356 svgShape"></path><path fill="#cbe0c3" d="M128 97a2.006 2.006 0 0 1-2 2H78.45l-1.48-2H126a1.996 1.996 0 0 0 1.73-1 1.995 1.995 0 0 1 .27 1Z" opacity=".6" class="colorcbe0c3 svgShape"></path><path fill="#e5d0c3" d="m71.99 97 1.48 2H54.53l1.48-2h15.98z" opacity=".3" class="colore5d0c3 svgShape"></path><path fill="#cbe0c3" d="m51.03 97-1.48 2H2a1.997 1.997 0 0 1-1.73-3A1.996 1.996 0 0 0 2 97Z" opacity=".6" class="colorcbe0c3 svgShape"></path><path fill="#f9dbd7" d="M49 56h30v2H49z" opacity=".3" class="colorf9dbd7 svgShape"></path><path fill="#a54b3f" d="M75 91h4v2h-4zM49 91h4v2h-4z" opacity=".5" class="colora54b3f svgShape"></path><path fill="#ad9359" d="M33.5 91H45v2H33.5zM83 91h11.5v2H83z" opacity=".45" class="colorad9359 svgShape"></path><path fill="#f9edd2" d="M33.5 48h61v2h-61z" opacity=".5" class="colorf9edd2 svgShape"></path><path fill="#f9dbd7" d="m97.76 40-1 2H31.24l-1-2h67.52z" opacity=".3" class="colorf9dbd7 svgShape"></path><path fill="#f9edd2" d="M33 32h62v2H33z" opacity=".5" class="colorf9edd2 svgShape"></path><path fill="#f9dbd7" d="M37 20h54v2H37z" opacity=".3" class="colorf9dbd7 svgShape"></path><path fill="#f9edd2" d="M77.9 16H77a5.01 5.01 0 0 0-4-2H55a5.01 5.01 0 0 0-4 2h-.9a5.009 5.009 0 0 1 4.9-4h18a5.009 5.009 0 0 1 4.9 4Z" opacity=".5" class="colorf9edd2 svgShape"></path><path fill="#ffffff" d="M58 4h12v2H58z" opacity=".5" class="colorfff svgShape"></path></svg></g></svg>