<svg id="SvgjsSvg1460" width="256" height="256" xmlns="http://www.w3.org/2000/svg" version="1.1" xmlns:xlink="http://www.w3.org/1999/xlink" xmlns:svgjs="http://svgjs.com/svgjs"><defs id="SvgjsDefs1461"></defs><g id="SvgjsG1462"><svg xmlns="http://www.w3.org/2000/svg" data-name="Layer 1" viewBox="0 0 128 128" width="256" height="256"><path fill="#98e07e" d="M93.24 107.42c-1.6 4.6-5.72 6.05-10.49 7.73-1.14.4-2.32.82-3.46 1.29a30.945 30.945 0 0 0-8.35 5.49c-1.96 1.69-2.79 2.14-5.04 2.06h-3.86c-2.19.06-3.02-.37-4.98-2.06a30.945 30.945 0 0 0-8.35-5.49c-1.14-.47-2.32-.89-3.46-1.29-4.77-1.68-8.89-3.13-10.49-7.73a14.677 14.677 0 0 1 .47-10.49 10.981 10.981 0 0 0 6.73-3.36 1.017 1.017 0 0 0 .23.18 15.347 15.347 0 0 0 7.1 2.25 7.026 7.026 0 0 0 1.77-.21 16.526 16.526 0 0 0 2.93-1.04 6.835 6.835 0 0 1 4.08-.71 1.997 1.997 0 1 0 .33-3.98 12.848 12.848 0 0 0-2.97.06 5.99 5.99 0 0 0-10.84-1.19A10.858 10.858 0 0 0 45 86a11.725 11.725 0 0 0-.12-1.57l.1.04a1.985 1.985 0 0 0 2.46-.79l1.57-2.54 9.67 6.05a1.95 1.95 0 0 0 1.06.31 2.004 2.004 0 0 0 1.06-3.7l-11.38-7.12a2.009 2.009 0 0 0-2.76.64l-1.73 2.81-2.31-.95a11.411 11.411 0 0 0-1.36-1.42A8.01 8.01 0 0 0 45 71c0-.18-.02-.35-.03-.53a15.044 15.044 0 0 1 5.15-4.96 12.006 12.006 0 0 1 9.57-.62A18.078 18.078 0 0 0 64.13 66h.12a18.102 18.102 0 0 0 4.43-1.11 12.01 12.01 0 0 1 9.57.62A14.57 14.57 0 0 1 83.07 70a8.261 8.261 0 0 0-.07 1 7.984 7.984 0 0 0 3.6 6.67l.04.18a12.224 12.224 0 0 0-1.26 1.33l-2.31.95-1.73-2.81a2.009 2.009 0 0 0-2.76-.64L67.2 83.8a2.004 2.004 0 0 0 1.06 3.7 1.95 1.95 0 0 0 1.06-.31l9.67-6.05 1.57 2.54a1.989 1.989 0 0 0 2.46.79l.1-.04A11.725 11.725 0 0 0 83 86a10.858 10.858 0 0 0 .41 2.93 5.987 5.987 0 0 0-10.84 1.2 12.249 12.249 0 0 0-2.97-.07 1.997 1.997 0 1 0 .33 3.98 6.835 6.835 0 0 1 4.08.71 16.526 16.526 0 0 0 2.93 1.04 7.026 7.026 0 0 0 1.77.21 15.347 15.347 0 0 0 7.1-2.25 1.017 1.017 0 0 0 .23-.18 10.981 10.981 0 0 0 6.73 3.36 14.677 14.677 0 0 1 .47 10.49Z" class="color98e07e svgShape"></path><path fill="#ffdb80" d="M87.83 63.66a7.886 7.886 0 0 0-2.94 2.19 17.632 17.632 0 0 0-4.7-3.84c-3.77-2.07-8.06-2.37-12.74-.92l-.11.03a16.118 16.118 0 0 1-3.15.88 15.996 15.996 0 0 1-3.16-.88l-.11-.03c-4.68-1.45-8.97-1.15-12.74.92a17.611 17.611 0 0 0-4.89 4.06 8.11 8.11 0 0 0-2.8-2.26 25.671 25.671 0 0 1 47.34-.15Z" class="colorffdb80 svgShape"></path><path fill="#ffdb80" d="M87.83 9.579c-17.06-9.07-31.017-11.755-47.34 0S20 35.667 21 47s8.18 23 8.18 23l8.182-6.596 3.128-6.369c-2.095-5.547-5.925-16.255-2.19-22.911a33.34 33.34 0 0 1 14.259-13.725l.003-.001a11.968 11.968 0 0 1 1.938-3.723V13.56a9.69 9.69 0 0 1 9.737-9.68l.411.009a9.776 9.776 0 0 1 9.232 9.88v3.427a12.057 12.057 0 0 1 1.539 3.14 18.814 18.814 0 0 1 4.97 3.534c9.27 9.19 10.774 26.54 7.441 33.165l3.429 7.607-3.78-2.251C90.91 67.09 98.619 72 98.619 72s7.548-18.833 7.714-25.667S104.89 18.65 87.83 9.58Z" class="colorffdb80 svgShape"></path><path fill="#2d4356" d="M33.44 27.84a2.002 2.002 0 0 0-2.68.91 2.05 2.05 0 0 0-.2.87 1.982 1.982 0 0 0 1.12 1.81 2.097 2.097 0 0 0 .88.2 1.999 1.999 0 0 0 1.79-1.12 1.914 1.914 0 0 0 .21-.86 1.996 1.996 0 0 0-1.12-1.81zm6.43-10.86a2 2 0 0 0 1.3 3.51 2.003 2.003 0 0 0 2-2 2.041 2.041 0 0 0-.48-1.31 1.998 1.998 0 0 0-2.82-.2zm-2.34 5.06a2.015 2.015 0 0 0-2.81.36 2.064 2.064 0 0 0-.42 1.24 2.026 2.026 0 0 0 .78 1.57 2.011 2.011 0 0 0 2.8-.36 2.008 2.008 0 0 0-.35-2.81zm-8.58 23.22h.09a2 2 0 0 0 2-1.901v-.1a1.996 1.996 0 0 0-3.99-.09h-.01v.1a1.999 1.999 0 0 0 1.91 1.99zm.76 7.05a1.997 1.997 0 0 0 1.69-1.98 1.505 1.505 0 0 0-.02-.3 2.001 2.001 0 0 0-3.98.3 1.522 1.522 0 0 0 .03.3 1.997 1.997 0 0 0 1.97 1.7c.1 0 .21-.011.31-.02zm16.28-39.63a2.002 2.002 0 0 0 .98 3.75 1.949 1.949 0 0 0 .98-.26l-.01.01a2 2 0 0 0 1.03-1.78 2.052 2.052 0 0 0-.26-.95 2 2 0 0 0-2.72-.77zM29.6 38.21a2.202 2.202 0 0 0 .5.06 2.006 2.006 0 0 0 1.94-1.5 2.223 2.223 0 0 0 .06-.5 2.001 2.001 0 0 0-3.94-.5h.01a1.716 1.716 0 0 0-.07.5 2.015 2.015 0 0 0 1.5 1.94zm66.67-6.92a1.992 1.992 0 0 0 1.11-1.81 1.953 1.953 0 0 0-.21-.87 2 2 0 0 0-3.79.92 1.912 1.912 0 0 0 .21.86 1.98 1.98 0 0 0 1.79 1.11 1.915 1.915 0 0 0 .89-.21zM85.2 17.1a2 2 0 0 0 1.52 3.3 1.999 1.999 0 0 0 2-2.01 2 2 0 0 0-3.52-1.29zM52.86 9.71a2.01 2.01 0 0 0-1.4 1.92 2.069 2.069 0 0 0 .09.6 2.01 2.01 0 0 0 1.91 1.39 2.163 2.163 0 0 0 .61-.09 1.945 1.945 0 0 0 .443-.226 9.624 9.624 0 0 1 .527-2.9 2.004 2.004 0 0 0-2.18-.694zm43 26.43a1.779 1.779 0 0 0 .07.5 1.996 1.996 0 0 0 1.93 1.49 1.798 1.798 0 0 0 .51-.07 1.985 1.985 0 0 0 1.49-1.94 2.197 2.197 0 0 0-.06-.5 2.002 2.002 0 0 0-3.94.52zM75 9.67a2.002 2.002 0 0 0-1.813.322 9.622 9.622 0 0 1 .688 3.508 1.975 1.975 0 0 0 .525.08 2.007 2.007 0 0 0 1.91-1.41 2.081 2.081 0 0 0 .09-.59A2.01 2.01 0 0 0 75 9.67zm6.88 2.94a1.992 1.992 0 0 0-2.72.78 1.93 1.93 0 0 0-.25.95 1.998 1.998 0 0 0 1.99 2.02 2.007 2.007 0 0 0 1.76-1.03 2.164 2.164 0 0 0 .25-.95 2.025 2.025 0 0 0-1.03-1.77zM30.49 55.3a2.013 2.013 0 0 0-1.31 1.889 2.41 2.41 0 0 0 .13.69 2 2 0 0 0 1.87 1.3 1.89 1.89 0 0 0 .7-.13 2.01 2.01 0 0 0 1.31-1.88 2.427 2.427 0 0 0-.13-.69 2.004 2.004 0 0 0-2.57-1.18zm62.7-33.02a2.002 2.002 0 1 0-1.58 3.23 1.95 1.95 0 0 0 1.23-.42 1.999 1.999 0 0 0 .77-1.57 2.06 2.06 0 0 0-.42-1.24zm5.65 18.84a1.998 1.998 0 0 0-1.89 2v.11a2.005 2.005 0 0 0 2 1.89h.11a2.006 2.006 0 0 0 1.89-2v-.1a2.004 2.004 0 0 0-2.11-1.9zm.07 7.09a1.998 1.998 0 0 0-2.27 1.68 1.67 1.67 0 0 0-.02.31 1.997 1.997 0 0 0 1.7 1.97c.1.01.2.019.3.019a1.99 1.99 0 0 0 1.97-1.71 1.515 1.515 0 0 0 .03-.3 2.014 2.014 0 0 0-1.71-1.97zm-1.36 6.96a1.997 1.997 0 0 0-2.56 1.18 1.88 1.88 0 0 0-.13.69 2 2 0 0 0 1.31 1.88 1.877 1.877 0 0 0 .69.13 2.008 2.008 0 0 0 1.88-1.32 2 2 0 0 0-1.19-2.56zM67.12 69.45A3.994 3.994 0 0 0 64.04 68h-.08a3.994 3.994 0 0 0-3.08 1.45c-1.04 1.25-3.4 4.54-2.78 7.86a5.67 5.67 0 0 0 2.86 3.94A6.296 6.296 0 0 0 64 82h.15c.04 0 .08-.01.11-.01a6.154 6.154 0 0 0 2.78-.74 5.67 5.67 0 0 0 2.86-3.94c.62-3.32-1.74-6.61-2.78-7.86zm-2.03 8.31a2.595 2.595 0 0 1-2.18 0C60.37 76.34 63.96 72 63.96 72h.08s3.59 4.34 1.05 5.76zm13.89 30.97a2.004 2.004 0 0 0-2.25-1.71l-.75.1a3.936 3.936 0 0 0-1.48-.91 5.535 5.535 0 0 0-4.77.94 3.747 3.747 0 0 1-3.99.47 5.763 5.763 0 0 0-3.51.01 3.724 3.724 0 0 1-3.96-.48 5.568 5.568 0 0 0-4.77-.94 3.936 3.936 0 0 0-1.48.91l-.75-.1a1.998 1.998 0 0 0-.54 3.96l2.28.31c1.82 2.15 5.42 5.82 8.31 5.71a36.88 36.88 0 0 1 5.36 0h.17c2.89 0 6.35-3.6 8.14-5.71l2.28-.31a1.997 1.997 0 0 0 1.71-2.25zM66.88 113a42.14 42.14 0 0 0-5.73 0 4.739 4.739 0 0 1-1.91-1.15 7.654 7.654 0 0 0 4.33-.45 2.105 2.105 0 0 1 .9.01 8.626 8.626 0 0 0 2.91.59 6.255 6.255 0 0 0 1.38-.15 4.826 4.826 0 0 1-1.88 1.15z" class="color2d4356 svgShape"></path><path fill="#fc785e" d="M68.76 111.85a4.826 4.826 0 0 1-1.88 1.15 42.14 42.14 0 0 0-5.73 0 4.739 4.739 0 0 1-1.91-1.15 7.654 7.654 0 0 0 4.33-.45 2.105 2.105 0 0 1 .9.01 8.626 8.626 0 0 0 2.91.59 6.255 6.255 0 0 0 1.38-.15Z" class="colorfc785e svgShape"></path><path fill="#e1ebf4" d="M65.09 77.76a2.595 2.595 0 0 1-2.18 0C60.37 76.34 63.96 72 63.96 72h.08s3.59 4.34 1.05 5.76Z" class="colore1ebf4 svgShape"></path><path fill="#2d4356" d="M97.54 75.59a8.18 8.18 0 0 0 .92-1.73 45 45 0 1 0-68.92 0 8.18 8.18 0 0 0 .92 1.73 10.992 10.992 0 0 0 .59 21 18.63 18.63 0 0 0-.07 12.14c2.23 6.42 7.92 8.43 12.94 10.19 1.14.41 2.23.79 3.28 1.22a27.28 27.28 0 0 1 7.25 4.82c2.36 2.04 4.1 3.04 7.17 3.04.16 0 .32 0 .48-.01h3.74c3.44.1 5.23-.89 7.71-3.03a27.28 27.28 0 0 1 7.25-4.82c1.05-.43 2.14-.81 3.28-1.22 5.02-1.76 10.71-3.77 12.94-10.19a18.63 18.63 0 0 0-.07-12.14 10.992 10.992 0 0 0 .59-21Zm-67.75-8.03a41.012 41.012 0 1 1 68.41-.02 8.02 8.02 0 0 0-2.71-3.15 2.023 2.023 0 0 0 .27-.96 2.003 2.003 0 0 0-3.7-1.08 1.952 1.952 0 0 0-.23.54 30.525 30.525 0 0 0-2.18-4.4 28.952 28.952 0 0 0-15.31-40.58 11.974 11.974 0 0 1 1.62 5.14A24.948 24.948 0 0 1 87 54.76a29.609 29.609 0 0 0-3.57-3.6c.58-6.48-3.88-12.31-12.4-16.07a1.98 1.98 0 0 1-1.15-1.82v-3.09a1.881 1.881 0 0 1 .34-1.16 7.969 7.969 0 0 0 0-10.04 1.881 1.881 0 0 1-.34-1.16v-4.05a6.01 6.01 0 0 0-.64-2.71.138.138 0 0 1 .03-.04 5.68 5.68 0 0 0-2.12-2.28 4.403 4.403 0 0 0-.52-.3.353.353 0 0 1-.08-.05.01.01 0 0 1-.01.01 5.441 5.441 0 0 0-2.05-.52 5.646 5.646 0 0 0-4.22 1.56 5.853 5.853 0 0 0-.91 1.13.075.075 0 0 0-.02.04 5.756 5.756 0 0 0-.43.86c-.01.01-.01.02-.02.03h.01a5.554 5.554 0 0 0-.4 2.06v3.84a1.95 1.95 0 0 1-.48 1.3 7.976 7.976 0 0 0 0 10.61 1.906 1.906 0 0 1 .48 1.29v2.67a1.98 1.98 0 0 1-1.15 1.82c-8.52 3.76-12.98 9.58-12.4 16.07a29.409 29.409 0 0 0-3.82 3.91 24.961 24.961 0 0 1 10.91-32.02 11.907 11.907 0 0 1 1.64-5.15 28.949 28.949 0 0 0-15.15 40.92 30.104 30.104 0 0 0-2.03 4.2c-.08.01-.17.01-.25.02a2.094 2.094 0 0 0-.24-.58 2.004 2.004 0 0 0-3.7 1.05 2.054 2.054 0 0 0 .21.86 8.116 8.116 0 0 0-2.73 3.19Zm10.7-3.75a25.671 25.671 0 0 1 47.34-.15 7.886 7.886 0 0 0-2.94 2.19 17.632 17.632 0 0 0-4.7-3.84c-3.77-2.07-8.06-2.37-12.74-.92l-.11.03a16.118 16.118 0 0 1-3.15.88 15.996 15.996 0 0 1-3.16-.88l-.11-.03c-4.68-1.45-8.97-1.15-12.74.92a17.611 17.611 0 0 0-4.89 4.06 8.11 8.11 0 0 0-2.8-2.26ZM41 71a4 4 0 1 1-4-4 3.999 3.999 0 0 1 4 4Zm20.01-44.35a3.981 3.981 0 0 1 0-5.3 5.93 5.93 0 0 0 1.49-3.95v-3.84a1.673 1.673 0 0 1 .53-1.22 1.734 1.734 0 0 1 1.25-.46 1.843 1.843 0 0 1 1.6 1.89v4.05a5.86 5.86 0 0 0 1.23 3.67 3.984 3.984 0 0 1 0 5.02 5.86 5.86 0 0 0-1.23 3.67v3.09a5.972 5.972 0 0 0 3.53 5.47c3.46 1.53 8.75 4.62 9.86 9.45a29.25 29.25 0 0 0-30.17 0c1.12-4.83 6.41-7.92 9.87-9.45a5.972 5.972 0 0 0 3.53-5.47V30.6a5.93 5.93 0 0 0-1.49-3.95ZM91 67a4 4 0 1 1-4 4 3.999 3.999 0 0 1 4-4ZM27 86a7 7 0 1 1 7 7 7.008 7.008 0 0 1-7-7Zm66.24 21.42c-1.6 4.6-5.72 6.05-10.49 7.73-1.14.4-2.32.82-3.46 1.29a30.945 30.945 0 0 0-8.35 5.49c-1.96 1.69-2.79 2.14-5.04 2.06h-3.86c-2.19.06-3.02-.37-4.98-2.06a30.945 30.945 0 0 0-8.35-5.49c-1.14-.47-2.32-.89-3.46-1.29-4.77-1.68-8.89-3.13-10.49-7.73a14.677 14.677 0 0 1 .47-10.49 10.981 10.981 0 0 0 6.73-3.36 1.017 1.017 0 0 0 .23.18 15.347 15.347 0 0 0 7.1 2.25 7.026 7.026 0 0 0 1.77-.21 16.526 16.526 0 0 0 2.93-1.04 6.835 6.835 0 0 1 4.08-.71 1.997 1.997 0 1 0 .33-3.98 12.848 12.848 0 0 0-2.97.06 5.99 5.99 0 0 0-10.84-1.19A10.858 10.858 0 0 0 45 86a11.725 11.725 0 0 0-.12-1.57l.1.04a1.985 1.985 0 0 0 2.46-.79l1.57-2.54 9.67 6.05a1.95 1.95 0 0 0 1.06.31 2.004 2.004 0 0 0 1.06-3.7l-11.38-7.12a2.009 2.009 0 0 0-2.76.64l-1.73 2.81-2.31-.95a11.411 11.411 0 0 0-1.36-1.42A8.01 8.01 0 0 0 45 71c0-.18-.02-.35-.03-.53a15.044 15.044 0 0 1 5.15-4.96 12.006 12.006 0 0 1 9.57-.62A18.078 18.078 0 0 0 64.13 66h.12a18.102 18.102 0 0 0 4.43-1.11 12.01 12.01 0 0 1 9.57.62A14.57 14.57 0 0 1 83.07 70a8.261 8.261 0 0 0-.07 1 7.984 7.984 0 0 0 3.6 6.67l.04.18a12.224 12.224 0 0 0-1.26 1.33l-2.31.95-1.73-2.81a2.009 2.009 0 0 0-2.76-.64L67.2 83.8a2.004 2.004 0 0 0 1.06 3.7 1.95 1.95 0 0 0 1.06-.31l9.67-6.05 1.57 2.54a1.989 1.989 0 0 0 2.46.79l.1-.04A11.725 11.725 0 0 0 83 86a10.858 10.858 0 0 0 .41 2.93 5.987 5.987 0 0 0-10.84 1.2 12.249 12.249 0 0 0-2.97-.07 1.997 1.997 0 1 0 .33 3.98 6.835 6.835 0 0 1 4.08.71 16.526 16.526 0 0 0 2.93 1.04 7.026 7.026 0 0 0 1.77.21 15.347 15.347 0 0 0 7.1-2.25 1.017 1.017 0 0 0 .23-.18 10.981 10.981 0 0 0 6.73 3.36 14.677 14.677 0 0 1 .47 10.49ZM47.76 91.79a1.99 1.99 0 0 1 3.88-.39 10.432 10.432 0 0 1-1.55.51 5.063 5.063 0 0 1-2.33-.12Zm32.48 0a5.063 5.063 0 0 1-2.33.12 10.432 10.432 0 0 1-1.55-.51 1.99 1.99 0 0 1 3.88.39ZM94 93a7 7 0 1 1 7-7 7.008 7.008 0 0 1-7 7Z" class="color2d4356 svgShape"></path><circle cx="34" cy="86" r="7" fill="#ffdb80" class="colorffdb80 svgShape"></circle><circle cx="37" cy="71" r="4" fill="#fc785e" class="colorfc785e svgShape"></circle><circle cx="91" cy="71" r="4" fill="#fc785e" class="colorfc785e svgShape"></circle><circle cx="94" cy="86" r="7" fill="#ffdb80" class="colorffdb80 svgShape"></circle><path fill="#fc785e" d="M79.27 48.19a29.25 29.25 0 0 0-30.17 0c1.12-4.83 6.41-7.92 9.87-9.45a5.972 5.972 0 0 0 3.53-5.47V30.6a5.93 5.93 0 0 0-1.49-3.95 3.981 3.981 0 0 1 0-5.3 5.93 5.93 0 0 0 1.49-3.95v-3.84a1.673 1.673 0 0 1 .53-1.22 1.734 1.734 0 0 1 1.25-.46 1.843 1.843 0 0 1 1.6 1.89v4.05a5.86 5.86 0 0 0 1.23 3.67 3.984 3.984 0 0 1 0 5.02 5.86 5.86 0 0 0-1.23 3.67v3.09a5.972 5.972 0 0 0 3.53 5.47c3.46 1.53 8.75 4.62 9.86 9.45Z" class="colorfc785e svgShape"></path><path fill="#2d4356" d="M59.969 103.667a2.056 2.056 0 0 1 .757-.103 5.216 5.216 0 0 0 3.298 1.435 5.172 5.172 0 0 0 3.25-1.435 1.96 1.96 0 0 1 .757.103 3.647 3.647 0 0 0 4.35-1.533c1.625-2.608-.268-5.39-1.643-6.624a2 2 0 0 0-2.67 2.978 3.473 3.473 0 0 1 .88 1.286.437.437 0 0 1-.035-.008 4.684 4.684 0 0 0-3.96.522 2.168 2.168 0 0 0-.303.252 3.59 3.59 0 0 1-.61.464 2.089 2.089 0 0 1-.68-.453 2.053 2.053 0 0 0-.314-.263 4.687 4.687 0 0 0-3.96-.522l-.054.013a3.701 3.701 0 0 1 .9-1.29 2 2 0 0 0-2.67-2.979c-1.375 1.233-3.268 4.016-1.642 6.623a3.646 3.646 0 0 0 4.349 1.534Z" class="color2d4356 svgShape"></path><path fill="#528440" d="M93.24 107.42c-1.6 4.6-5.72 6.05-10.49 7.73-1.14.4-2.32.82-3.46 1.29a30.945 30.945 0 0 0-8.35 5.49c-1.96 1.69-2.79 2.14-5.04 2.06h-3.86c-2.19.06-3.02-.37-4.98-2.06a30.945 30.945 0 0 0-8.35-5.49c-1.14-.47-2.32-.89-3.46-1.29-4.77-1.68-8.89-3.13-10.49-7.73a14.203 14.203 0 0 1-.71-5.6 13.368 13.368 0 0 0 .71 3.6c1.6 4.6 5.72 6.05 10.49 7.73 1.14.4 2.32.82 3.46 1.29a30.945 30.945 0 0 1 8.35 5.49c1.96 1.69 2.79 2.12 4.98 2.06h3.86c2.25.08 3.08-.37 5.04-2.06a30.945 30.945 0 0 1 8.35-5.49c1.14-.47 2.32-.89 3.46-1.29 4.77-1.68 8.89-3.13 10.49-7.73a13.368 13.368 0 0 0 .71-3.6 14.203 14.203 0 0 1-.71 5.6Z" opacity=".3" class="color528440 svgShape"></path><path fill="#f9edd2" d="M105 45c0 .27 0 .54-.02.8a40.997 40.997 0 0 0-81.96 0c-.02-.26-.02-.53-.02-.8a41 41 0 0 1 82 0Z" opacity=".5" class="colorf9edd2 svgShape"></path><path fill="#f9dbd7" d="M65.88 13.77v2a1.843 1.843 0 0 0-1.6-1.89 1.734 1.734 0 0 0-1.25.46 1.673 1.673 0 0 0-.53 1.22v-2a1.673 1.673 0 0 1 .53-1.22 1.734 1.734 0 0 1 1.25-.46 1.843 1.843 0 0 1 1.6 1.89Z" opacity=".3" class="colorf9dbd7 svgShape"></path><path fill="#f9edd2" d="M87.83 63.66a6.727 6.727 0 0 0-.76.38 25.654 25.654 0 0 0-45.84.18 7.685 7.685 0 0 0-.74-.41 25.671 25.671 0 0 1 47.34-.15Z" opacity=".5" class="colorf9edd2 svgShape"></path><path fill="#cbe0c3" d="M83 71a6.634 6.634 0 0 0 .07 1 14.57 14.57 0 0 0-4.82-4.49 12.01 12.01 0 0 0-9.57-.62A18.102 18.102 0 0 1 64.25 68h-.12a18.078 18.078 0 0 1-4.44-1.11 12.006 12.006 0 0 0-9.57.62 15.044 15.044 0 0 0-5.15 4.96c.01.18.03.35.03.53a7.938 7.938 0 0 1-2.62 5.9 10.054 10.054 0 0 0-1.12-1.14A8.01 8.01 0 0 0 45 71c0-.18-.02-.35-.03-.53a15.044 15.044 0 0 1 5.15-4.96 12.006 12.006 0 0 1 9.57-.62A18.078 18.078 0 0 0 64.13 66h.12a18.102 18.102 0 0 0 4.43-1.11 12.01 12.01 0 0 1 9.57.62A14.57 14.57 0 0 1 83.07 70a8.261 8.261 0 0 0-.07 1Z" opacity=".6" class="colorcbe0c3 svgShape"></path><path fill="#a54b3f" d="M95 71a4 4 0 0 1-8 0 3.656 3.656 0 0 1 .13-1 3.996 3.996 0 0 0 7.74 0 3.656 3.656 0 0 1 .13 1zm-54 0a4 4 0 0 1-8 0 3.656 3.656 0 0 1 .13-1 3.996 3.996 0 0 0 7.74 0 3.656 3.656 0 0 1 .13 1z" opacity=".5" class="colora54b3f svgShape"></path><path fill="#f9edd2" d="M41 86a5.547 5.547 0 0 1-.08 1 6.99 6.99 0 0 0-13.84 0 5.547 5.547 0 0 1-.08-1 7 7 0 0 1 14 0Z" opacity=".5" class="colorf9edd2 svgShape"></path><path fill="#ad9359" d="M41 86a7 7 0 0 1-14 0 5.546 5.546 0 0 1 .08-1 6.99 6.99 0 0 0 13.84 0 5.546 5.546 0 0 1 .08 1Z" opacity=".45" class="colorad9359 svgShape"></path><path fill="#f9edd2" d="M101 86a5.547 5.547 0 0 1-.08 1 6.99 6.99 0 0 0-13.84 0 5.547 5.547 0 0 1-.08-1 7 7 0 0 1 14 0Z" opacity=".5" class="colorf9edd2 svgShape"></path><path fill="#ad9359" d="M101 86a7 7 0 0 1-14 0 5.546 5.546 0 0 1 .08-1 6.99 6.99 0 0 0 13.84 0 5.546 5.546 0 0 1 .08 1Z" opacity=".45" class="colorad9359 svgShape"></path></svg></g></svg>