<svg id="SvgjsSvg1146" width="256" height="256" xmlns="http://www.w3.org/2000/svg" version="1.1" xmlns:xlink="http://www.w3.org/1999/xlink" xmlns:svgjs="http://svgjs.com/svgjs"><defs id="SvgjsDefs1147"></defs><g id="SvgjsG1148"><svg xmlns="http://www.w3.org/2000/svg" data-name="Layer 1" viewBox="0 0 128 128" width="256" height="256"><path fill="#ffdb80" d="M120 77.69V122a2.00591 2.00591 0 0 1-2 2h-2V100.16a4.09219 4.09219 0 0 0-1.15-2.85s-3.99-4.09-4-4.1a4.03485 4.03485 0 0 0-5.69 0L101.15 97.31a4.09219 4.09219 0 0 0-1.15 2.85V124H96V78h2v2a2 2 0 0 0 4 0V78h4v2a2 2 0 0 0 4 0V78h4v2a2 2 0 0 0 4 0V78h.45A4.04477 4.04477 0 0 0 120 77.69zM80 78v46H76V100.87a4.04091 4.04091 0 0 0-1.93-3.44l-8-4.85a3.97675 3.97675 0 0 0-4.14 0l-8 4.85A4.04091 4.04091 0 0 0 52 100.87V124H48V78zM32 78v46H28V100.16a4.09219 4.09219 0 0 0-1.15-2.85s-4-4.09-4.00995-4.1a4.05325 4.05325 0 0 0-5.69 0l-4 4.1A4.09219 4.09219 0 0 0 12 100.16V124H10a2.00591 2.00591 0 0 1-2-2V77.69A4.04477 4.04477 0 0 0 9.55 78H10v2a2 2 0 0 0 4 0V78h4v2a2 2 0 0 0 4 0V78h4v2a2 2 0 0 0 4 0V78z" class="colorffdb80 svgShape"></path><rect width="115" height="3.625" x="6.5" y="76.375" fill="#f9edd2" opacity=".5" class="colorf9edd2 svgShape"></rect><polygon fill="#e1ebf4" points="112 100.16 112 124 104 124 104.02 100.1 107.98 96 112 100.16" class="colore1ebf4 svgShape"></polygon><polygon fill="#e1ebf4" points="72 100.87 72 124 56 124 56.01 100.85 63.99 96 72 100.87" class="colore1ebf4 svgShape"></polygon><polygon fill="#e1ebf4" points="24 100.16 24 124 16 124 16.02 100.1 19.98 96 24 100.16" class="colore1ebf4 svgShape"></polygon><path fill="#2d4356" d="M127.54,64.16A4.04906,4.04906,0,0,0,124,62V58a6.00476,6.00476,0,0,0-6-6H96V17a2.06147,2.06147,0,0,0-.33-1.11L90,7.39V2a2,2,0,0,0-4,0V7.39l-5.66,8.5A1.9888,1.9888,0,0,0,80,17V35.54a5.96487,5.96487,0,0,0-8,0,5.96487,5.96487,0,0,0-8,0,5.96487,5.96487,0,0,0-8,0,5.96487,5.96487,0,0,0-8,0V17a1.9888,1.9888,0,0,0-.34-1.11L42,7.39V2a2,2,0,0,0-4,0V7.39l-5.67,8.5A2.06147,2.06147,0,0,0,32,17V52H10a6.00476,6.00476,0,0,0-6,6v4A4.04906,4.04906,0,0,0,.46,64.16,3.92155,3.92155,0,0,0,.7,68.24L4,73.05V122a6.00476,6.00476,0,0,0,6,6H118a6.00476,6.00476,0,0,0,6-6V73.05l3.3-4.81A3.92155,3.92155,0,0,0,127.54,64.16ZM24,124H16l.02-23.9L19.98,96,24,100.16Zm8,0H28V100.16a4.09219,4.09219,0,0,0-1.15-2.85s-4-4.09-4.00995-4.1a4.05325,4.05325,0,0,0-5.69,0l-4,4.1A4.09219,4.09219,0,0,0,12,100.16V124H10a2.00591,2.00591,0,0,1-2-2V77.69A4.04477,4.04477,0,0,0,9.55,78H10v2a2,2,0,0,0,4,0V78h4v2a2,2,0,0,0,4,0V78h4v2a2,2,0,0,0,4,0V78h2Zm0-50.02H9.48L4.06,66H32ZM32,62H8V58a2.00587,2.00587,0,0,1,2-2H32Zm12,62H36V114h8Zm0-14H36v-4h8Zm0-8H36V56h8Zm0-50H36V28h8Zm0-28H42V23a2,2,0,0,0-4,0v1H36V17.61l4-6,4,6ZM74,40a2,2,0,0,1,4,0v2H74Zm-8,0a2,2,0,0,1,4,0v2H66Zm-8,0a2,2,0,0,1,4,0v2H58Zm-8,0a2,2,0,0,1,4,0v2H50ZM48,56h5.25v6H48Zm24,68H56l.01-23.15L63.99,96,72,100.87Zm8,0H76V100.87a4.04091,4.04091,0,0,0-1.93-3.44l-8-4.85a3.97675,3.97675,0,0,0-4.14,0l-8,4.85A4.04091,4.04091,0,0,0,52,100.87V124H48V78H80Zm0-50.01H48V66H80ZM57.25,62V56h5v6Zm9,0V56h5v6ZM80,62H75.25V56H80Zm0-10H48V46H80Zm12,72H84V114h8Zm0-14H84v-4h8Zm0-8H84V56h8Zm0-50H84V28h8Zm0-28H90V23a2,2,0,0,0-4,0v1H84V17.61l4-6,4,6Zm4,32h22a2.00587,2.00587,0,0,1,2,2v4H96Zm16,68h-8l.02-23.9,3.96-4.1,4.02,4.16Zm8-2a2.00591,2.00591,0,0,1-2,2h-2V100.16a4.09219,4.09219,0,0,0-1.15-2.85s-3.99-4.09-4-4.1a4.03485,4.03485,0,0,0-5.69,0L101.15,97.31a4.09219,4.09219,0,0,0-1.15,2.85V124H96V78h2v2a2,2,0,0,0,4,0V78h4v2a2,2,0,0,0,4,0V78h4v2a2,2,0,0,0,4,0V78h.45a4.04477,4.04477,0,0,0,1.55-.31Zm-1.55-48H96V66h27.94l.06-.02Z" class="color2d4356 svgShape"></path><path fill="#81d9e3" d="M92 17.61V24H90V23a2 2 0 0 0-4 0v1H84V17.61l4-6zM44 17.61V24H42V23a2 2 0 0 0-4 0v1H36V17.61l4-6z" class="color81d9e3 svgShape"></path><rect width="8" height="24" x="36" y="28" fill="#fc785e" class="colorfc785e svgShape"></rect><rect width="32" height="6" x="48" y="46" fill="#ffdb80" class="colorffdb80 svgShape"></rect><rect width="8" height="24" x="84" y="28" fill="#fc785e" class="colorfc785e svgShape"></rect><path fill="#e1ebf4" d="M120,58v4H96V56h22A2.00587,2.00587,0,0,1,120,58Z" class="colore1ebf4 svgShape"></path><rect width="4.75" height="6" x="75.25" y="56" fill="#81d9e3" class="color81d9e3 svgShape"></rect><rect width="5" height="6" x="66.25" y="56" fill="#81d9e3" class="color81d9e3 svgShape"></rect><rect width="5" height="6" x="57.25" y="56" fill="#81d9e3" class="color81d9e3 svgShape"></rect><rect width="5.25" height="6" x="48" y="56" fill="#81d9e3" class="color81d9e3 svgShape"></rect><path fill="#e1ebf4" d="M32,56v6H8V58a2.00587,2.00587,0,0,1,2-2Z" class="colore1ebf4 svgShape"></path><polygon fill="#fc785e" points="32 66 32 73.98 9.48 73.98 4.06 66 32 66" class="colorfc785e svgShape"></polygon><rect width="32" height="7.99" x="48" y="66" fill="#fc785e" class="colorfc785e svgShape"></rect><polygon fill="#fc785e" points="124 65.98 118.45 74 96 74 96 66 123.94 66 124 65.98" class="colorfc785e svgShape"></polygon><rect width="8" height="46" x="84" y="56" fill="#e1ebf4" class="colore1ebf4 svgShape"></rect><rect width="8" height="10" x="84" y="114" fill="#fc785e" class="colorfc785e svgShape"></rect><rect width="8" height="4" x="84" y="106" fill="#81d9e3" class="color81d9e3 svgShape"></rect><rect width="8" height="10" x="36" y="114" fill="#fc785e" class="colorfc785e svgShape"></rect><rect width="8" height="4" x="36" y="106" fill="#81d9e3" class="color81d9e3 svgShape"></rect><rect width="8" height="46" x="36" y="56" fill="#e1ebf4" class="colore1ebf4 svgShape"></rect><circle cx="11.998" cy="91" r="2" fill="#2d4356" class="color2d4356 svgShape"></circle><circle cx="27.999" cy="91" r="2" fill="#2d4356" class="color2d4356 svgShape"></circle><circle cx="100.001" cy="91" r="2" fill="#2d4356" class="color2d4356 svgShape"></circle><circle cx="116.002" cy="91" r="2" fill="#2d4356" class="color2d4356 svgShape"></circle><circle cx="54" cy="91" r="2" fill="#2d4356" class="color2d4356 svgShape"></circle><circle cx="74" cy="91" r="2" fill="#2d4356" class="color2d4356 svgShape"></circle><path fill="#2d4356" d="M39.999 36a2.00014 2.00014 0 0 0-2.00008 2v4a2.00008 2.00008 0 0 0 4.00017 0V38A2.00014 2.00014 0 0 0 39.999 36zM88.001 44a2.00014 2.00014 0 0 0 2.00008-2V38a2.00008 2.00008 0 0 0-4.00017 0v4A2.00014 2.00014 0 0 0 88.001 44z" class="color2d4356 svgShape"></path><rect width="8" height="2" x="36" y="56" fill="#ffffff" opacity=".5" class="colorfff svgShape"></rect><rect width="4" height="2" x="48" y="122" fill="#ad9359" opacity=".45" class="colorad9359 svgShape"></rect><rect width="8" height="2" x="84" y="56" fill="#ffffff" opacity=".5" class="colorfff svgShape"></rect><rect width="32" height="2" x="48" y="46" fill="#f9edd2" opacity=".5" class="colorf9edd2 svgShape"></rect><rect width="8" height="2" x="84" y="50" fill="#a54b3f" opacity=".5" class="colora54b3f svgShape"></rect><rect width="8" height="2" x="36" y="50" fill="#a54b3f" opacity=".5" class="colora54b3f svgShape"></rect><rect width="8" height="2" x="36" y="28" fill="#f9dbd7" opacity=".3" class="colorf9dbd7 svgShape"></rect><rect width="8" height="2" x="84" y="28" fill="#f9dbd7" opacity=".3" class="colorf9dbd7 svgShape"></rect><polygon fill="#e8fbfc" points="92 17.61 92 19.61 88 13.61 84 19.61 84 17.61 88 11.61 92 17.61" opacity=".4" class="colore8fbfc svgShape"></polygon><polygon fill="#e8fbfc" points="44 17.61 44 19.61 40 13.61 36 19.61 36 17.61 40 11.61 44 17.61" opacity=".4" class="colore8fbfc svgShape"></polygon><rect width="4.75" height="2" x="75.25" y="60" fill="#0f423c" opacity=".3" class="color0f423c svgShape"></rect><rect width="5" height="2" x="66.25" y="60" fill="#0f423c" opacity=".3" class="color0f423c svgShape"></rect><rect width="5" height="2" x="57.25" y="60" fill="#0f423c" opacity=".3" class="color0f423c svgShape"></rect><rect width="5.25" height="2" x="48" y="60" fill="#0f423c" opacity=".3" class="color0f423c svgShape"></rect><rect width="5.25" height="2" x="48" y="56" fill="#e8fbfc" opacity=".4" class="colore8fbfc svgShape"></rect><rect width="5" height="2" x="57.25" y="56" fill="#e8fbfc" opacity=".4" class="colore8fbfc svgShape"></rect><rect width="5" height="2" x="66.25" y="56" fill="#e8fbfc" opacity=".4" class="colore8fbfc svgShape"></rect><rect width="4.75" height="2" x="75.25" y="56" fill="#e8fbfc" opacity=".4" class="colore8fbfc svgShape"></rect><path fill="#ffffff" d="M120 58v2a2.00587 2.00587 0 0 0-2-2H96V56h22A2.00587 2.00587 0 0 1 120 58zM32 56v2H10a2.00587 2.00587 0 0 0-2 2V58a2.00587 2.00587 0 0 1 2-2z" opacity=".5" class="colorfff svgShape"></path><polygon fill="#f9dbd7" points="124 65.98 122.6 68 96 68 96 66 123.94 66 124 65.98" opacity=".3" class="colorf9dbd7 svgShape"></polygon><rect width="32" height="2" x="48" y="66" fill="#f9dbd7" opacity=".3" class="colorf9dbd7 svgShape"></rect><polygon fill="#f9dbd7" points="32 66 32 68 5.42 68 4.06 66 32 66" opacity=".3" class="colorf9dbd7 svgShape"></polygon><polygon fill="#a54b3f" points="32 71.98 32 73.98 9.48 73.98 4.06 66 5.42 66 9.48 71.98 32 71.98" opacity=".5" class="colora54b3f svgShape"></polygon><rect width="32" height="2" x="48" y="71.99" fill="#a54b3f" opacity=".5" class="colora54b3f svgShape"></rect><polygon fill="#a54b3f" points="124 65.98 118.45 74 96 74 96 72 118.45 72 122.6 66 123.94 66 124 65.98" opacity=".5" class="colora54b3f svgShape"></polygon><polygon fill="#ffffff" points="112 100.16 112 102.16 107.98 98 104.02 102.1 104.02 100.1 107.98 96 112 100.16" opacity=".5" class="colorfff svgShape"></polygon><polygon fill="#ffffff" points="72 100.87 72 102.87 63.99 98 56.01 102.85 56.01 100.85 63.99 96 72 100.87" opacity=".5" class="colorfff svgShape"></polygon><polygon fill="#ffffff" points="24 100.16 24 102.16 19.98 98 16.02 102.1 16.02 100.1 19.98 96 24 100.16" opacity=".5" class="colorfff svgShape"></polygon><path fill="#ad9359" d="M12,122v2H10a2.00591,2.00591,0,0,1-2-2v-2a2.00591,2.00591,0,0,0,2,2Z" opacity=".45" class="colorad9359 svgShape"></path><rect width="8" height="2" x="16" y="122" fill="#9fa5aa" opacity=".5" class="color9fa5aa svgShape"></rect><rect width="4" height="2" x="28" y="122" fill="#ad9359" opacity=".45" class="colorad9359 svgShape"></rect><rect width="8" height="2" x="36" y="122" fill="#a54b3f" opacity=".5" class="colora54b3f svgShape"></rect><rect width="16" height="2" x="56" y="122" fill="#9fa5aa" opacity=".5" class="color9fa5aa svgShape"></rect><rect width="4" height="2" x="76" y="122" fill="#ad9359" opacity=".45" class="colorad9359 svgShape"></rect><rect width="8" height="2" x="84" y="122" fill="#a54b3f" opacity=".5" class="colora54b3f svgShape"></rect><rect width="4" height="2" x="96" y="122" fill="#ad9359" opacity=".45" class="colorad9359 svgShape"></rect><rect width="8" height="2" x="104" y="122" fill="#9fa5aa" opacity=".5" class="color9fa5aa svgShape"></rect><path fill="#ad9359" d="M120,120v2a2.00591,2.00591,0,0,1-2,2h-2v-2h2A2.00591,2.00591,0,0,0,120,120Z" opacity=".45" class="colorad9359 svgShape"></path></svg></g></svg>