<svg id="SvgjsSvg1076" width="256" height="256" xmlns="http://www.w3.org/2000/svg" version="1.1" xmlns:xlink="http://www.w3.org/1999/xlink" xmlns:svgjs="http://svgjs.com/svgjs"><defs id="SvgjsDefs1077"></defs><g id="SvgjsG1078"><svg xmlns="http://www.w3.org/2000/svg" viewBox="0 0 128 128" width="256" height="256"><path fill="#ffedce" d="M86 81h12v46H86z" class="colorffedce svgShape"></path><path fill="#8e7f8b" d="M94 113h-4v-4c0-1.1.9-2 2-2s2 .9 2 2v4z" class="color8e7f8b svgShape"></path><path fill="#ffe9cf" d="M34 57h60v24H34z" class="colorffe9cf svgShape"></path><path fill="#8e7f8b" d="M50 82V71c0-4.5 4.1-6 4.1-6s3.9 1.5 3.9 6v11M38 82V71c0-4.5 4.1-6 4.1-6s3.9 1.5 3.9 6v11" class="color8e7f8b svgShape"></path><path fill="#726571" d="M42.1 65S38 66.5 38 71v4c0-4.5 4.1-6 4.1-6s3.9 1.5 3.9 6v-4c0-4.5-3.9-6-3.9-6zm12 0S50 66.5 50 71v4c0-4.5 4.1-6 4.1-6s3.9 1.5 3.9 6v-4c0-4.5-3.9-6-3.9-6z" class="color726571 svgShape"></path><path fill="#ffe9cf" d="M98 81h12v46H98zM18 81h12v46H18z" class="colorffe9cf svgShape"></path><path fill="#ffffff" d="M106 81h4v46h-4zM26 81h4v46h-4z" class="colorfff svgShape"></path><path fill="#ffe9cf" d="M42 81v46h38l-32-.1v-20.7c0-6.4 3.7-12.3 9.8-15.7L64 87l6.1 3.4c6.1 3.4 9.9 9.4 9.9 15.7V127h6V81H42zM100 24h8v9h-8zM20 24h8v9h-8z" class="colorffe9cf svgShape"></path><path fill="#ffe9cf" d="M109.96 24.032h-12v-6h12z" class="colorffe9cf svgShape"></path><path fill="#ffedce" d="M29.96 24.032h-12v-6h12z" class="colorffedce svgShape"></path><path fill="#ffe9cf" d="M20 17.6v-7.3c0-1.8.9-3.5 2.4-4.5l1.6-1 1.5 1c1.5 1 2.5 2.7 2.5 4.5v7.3M100 17.6v-7.3c0-1.8.9-3.5 2.4-4.5l1.6-1 1.5 1c1.5 1 2.5 2.7 2.5 4.5v7.3" class="colorffe9cf svgShape"></path><path fill="#fdd2af" d="M20 24h8v4h-8zM100 24h8v4h-8z" class="colorfdd2af svgShape"></path><path fill="#ffe9cf" d="M100 41h8v16h-8z" class="colorffe9cf svgShape"></path><path fill="#ffedce" d="M94 57h20v24H94z" class="colorffedce svgShape"></path><path fill="#fdd2af" d="M94 57h4v24h-4z" class="colorfdd2af svgShape"></path><path fill="#ffe9cf" d="M30 81h12v46H30z" class="colorffe9cf svgShape"></path><circle cx="64" cy="69" r="2" fill="#ffd79e" class="colorffd79e svgShape"></circle><path fill="#fdd2af" d="M30 81h68v4H30zM18 81h12v4H18z" class="colorfdd2af svgShape"></path><path fill="#fdd2af" d="M94 81h4v46h-4zM98 81h4v46h-4zM30 81h4v46h-4zM18 81h4v46h-4z" class="colorfdd2af svgShape"></path><circle cx="48" cy="89" r="2" fill="#ffd79e" class="colorffd79e svgShape"></circle><circle cx="80" cy="89" r="2" fill="#ffd79e" class="colorffd79e svgShape"></circle><path fill="#ffe9cf" d="M14 57h20v24H14z" class="colorffe9cf svgShape"></path><path fill="#fdd2af" d="M98 81h12v4H98z" class="colorfdd2af svgShape"></path><path fill="#ffe9cf" d="M28 48.9h72V57H28z" class="colorffe9cf svgShape"></path><path fill="#fdd2af" d="M28 48.9h4V57h-4zM96 48.9h4V57h-4zM34 57h4v24h-4zM14 57h4v24h-4z" class="colorfdd2af svgShape"></path><path fill="#8e7f8b" d="M70 82V71c0-4.5 4.1-6 4.1-6s3.9 1.5 3.9 6v11M82 82V71c0-4.5 4.1-6 4.1-6s3.9 1.5 3.9 6v11M38 93h-4v-4c0-1.1.9-2 2-2s2 .9 2 2v4z" class="color8e7f8b svgShape"></path><path fill="#726571" d="M36 87c-1.1 0-2 .9-2 2v3c0-1.1.9-2 2-2s2 .9 2 2v-3c0-1.1-.9-2-2-2z" class="color726571 svgShape"></path><path fill="#8e7f8b" d="M38 103h-4v-4c0-1.1.9-2 2-2s2 .9 2 2v4z" class="color8e7f8b svgShape"></path><path fill="#726571" d="M36 97c-1.1 0-2 .9-2 2v3c0-1.1.9-2 2-2s2 .9 2 2v-3c0-1.1-.9-2-2-2z" class="color726571 svgShape"></path><path fill="#8e7f8b" d="M38 113h-4v-4c0-1.1.9-2 2-2s2 .9 2 2v4zM38 123h-4v-4c0-1.1.9-2 2-2s2 .9 2 2v4zM94 93h-4v-4c0-1.1.9-2 2-2s2 .9 2 2v4zM94 103h-4v-4c0-1.1.9-2 2-2s2 .9 2 2v4zM94 123h-4v-4c0-1.1.9-2 2-2s2 .9 2 2v4zM30 77h-4v-4c0-1.1.9-2 2-2s2 .9 2 2v4zM30 67h-4v-4c0-1.1.9-2 2-2s2 .9 2 2v4zM102 77h-4v-4c0-1.1.9-2 2-2s2 .9 2 2v4zM102 67h-4v-4c0-1.1.9-2 2-2s2 .9 2 2v4zM110 77h-4v-4c0-1.1.9-2 2-2s2 .9 2 2v4zM110 67h-4v-4c0-1.1.9-2 2-2s2 .9 2 2v4z" class="color8e7f8b svgShape"></path><path fill="#e3f4fd" d="M38 57h-4v-2c0-1.1.9-2 2-2s2 .9 2 2v2zM46 57h-4v-2c0-1.1.9-2 2-2s2 .9 2 2v2zM54 57h-4v-2c0-1.1.9-2 2-2s2 .9 2 2v2zM62 57h-4v-2c0-1.1.9-2 2-2s2 .9 2 2v2zM70 57h-4v-2c0-1.1.9-2 2-2s2 .9 2 2v2zM78 57h-4v-2c0-1.1.9-2 2-2s2 .9 2 2v2zM86 57h-4v-2c0-1.1.9-2 2-2s2 .9 2 2v2zM94 57h-4v-2c0-1.1.9-2 2-2s2 .9 2 2v2z" class="colore3f4fd svgShape"></path><path fill="#8e7f8b" d="M22 77h-4v-4c0-1.1.9-2 2-2s2 .9 2 2v4zM22 67h-4v-4c0-1.1.9-2 2-2s2 .9 2 2v4z" class="color8e7f8b svgShape"></path><path fill="#ffe9cf" d="M28 44.9h72v4H28zM20 41h8v16h-8z" class="colorffe9cf svgShape"></path><path fill="#fdd2af" d="M19 17.9h3V24h-3zM99 17.9h3V24h-3z" class="colorfdd2af svgShape"></path><path fill="#ffe9cf" d="M31.96 41.032h-16v-8h16z" class="colorffe9cf svgShape"></path><path fill="#fdd2af" d="M20 41h8v4h-8zM100 41h8v4h-8z" class="colorfdd2af svgShape"></path><path fill="#ffe9cf" d="M111.96 41.032h-16v-8h16z" class="colorffe9cf svgShape"></path><path fill="#ffffff" d="M105 24h3v9h-3zM25 24h3v9h-3zM105 41h3v16h-3zM90 57h4v24h-4zM110 57h4v24h-4z" class="colorfff svgShape"></path><path fill="#ffffff" d="M34 57h60v4H34zM14 57h20v4H14zM94 57h20v4H94z" class="colorfff svgShape"></path><path fill="#ffffff" d="M30 57h4v24h-4zM25 41h3v16h-3zM105 11h3v7h-3zM25 11h3v7h-3z" class="colorfff svgShape"></path><path fill="#ffffff" d="M26 17.9h3V24h-3zM106 17.9h3V24h-3zM28 47.9h72v4H28zM28 33h4v8h-4zM108 33h4v8h-4z" class="colorfff svgShape"></path><path fill="#fdd2af" d="M16 33h4v8h-4zM96 33h4v8h-4z" class="colorfdd2af svgShape"></path><path fill="#594454" d="M127 128H1c-.6 0-1-.4-1-1s.4-1 1-1h126c.6 0 1 .4 1 1s-.4 1-1 1z" class="color594454 svgShape"></path><path fill="#594454" d="M80 128c-.6 0-1-.4-1-1v-20.9c0-6-3.5-11.6-9.4-14.9L64 88.1l-5.7 3.2c-5.8 3.3-9.3 8.8-9.3 14.8v20.7c0 .6-.4 1-1 1s-1-.4-1-1v-20.7c0-6.7 3.9-12.9 10.3-16.6l6.2-3.5c.3-.2.7-.2 1 0l6.1 3.4C77.1 93 81 99.2 81 106v21c0 .6-.5 1-1 1zM46 83c-.6 0-1-.4-1-1V71c0-3-2.1-4.5-2.9-4.9-.9.5-3.1 1.9-3.1 4.9v11c0 .6-.4 1-1 1s-1-.4-1-1V71c0-5.1 4.6-6.9 4.8-6.9.2-.1.5-.1.7 0 .2.1 4.5 1.8 4.5 6.9v11c0 .6-.5 1-1 1zM58 83c-.6 0-1-.4-1-1V71c0-3-2.1-4.5-2.9-4.9-.9.5-3.1 1.9-3.1 4.9v11c0 .6-.4 1-1 1s-1-.4-1-1V71c0-5.1 4.6-6.9 4.8-6.9.2-.1.5-.1.7 0 .2.1 4.5 1.8 4.5 6.9v11c0 .6-.5 1-1 1z" class="color594454 svgShape"></path><path fill="#594454" d="M86 128H42c-.6 0-1-.4-1-1V81c0-.6.4-1 1-1h44c.6 0 1 .4 1 1v46c0 .6-.5 1-1 1zm-43-2h42V82H43v44z" class="color594454 svgShape"></path><path fill="#594454" d="M42 128H30c-.6 0-1-.4-1-1V81c0-.6.4-1 1-1h12c.6 0 1 .4 1 1v46c0 .6-.5 1-1 1zm-11-2h10V82H31v44z" class="color594454 svgShape"></path><path fill="#594454" d="M30 128H18c-.6 0-1-.4-1-1V81c0-.6.4-1 1-1h12c.6 0 1 .4 1 1v46c0 .6-.5 1-1 1zm-11-2h10V82H19v44zM28 58h-8c-.6 0-1-.4-1-1V41c0-.6.4-1 1-1h8c.6 0 1 .4 1 1v16c0 .6-.5 1-1 1zm-7-2h6V42h-6v14zM28 34h-8c-.6 0-1-.4-1-1v-9c0-.6.4-1 1-1h8c.6 0 1 .4 1 1v9c0 .6-.5 1-1 1zm-7-2h6v-7h-6v7zM108 58h-8c-.6 0-1-.4-1-1V41c0-.6.4-1 1-1h8c.6 0 1 .4 1 1v16c0 .6-.5 1-1 1zm-7-2h6V42h-6v14z" class="color594454 svgShape"></path><path fill="#594454" d="M34 82H14c-.6 0-1-.4-1-1V57c0-.6.4-1 1-1h20c.6 0 1 .4 1 1v24c0 .6-.5 1-1 1zm-19-2h18V58H15v22zM32 42H16c-.6 0-1-.4-1-1v-8c0-.6.4-1 1-1h16c.6 0 1 .4 1 1v8c0 .6-.5 1-1 1zm-15-2h14v-6H17v6zM30 25H18c-.6 0-1-.4-1-1v-6c0-.6.4-1 1-1h12c.6 0 1 .4 1 1v6c0 .6-.5 1-1 1zm-11-2h10v-4H19v4z" class="color594454 svgShape"></path><path fill="#594454" d="M94 82H34c-.6 0-1-.4-1-1V57c0-.6.4-1 1-1h60c.6 0 1 .4 1 1v24c0 .6-.5 1-1 1zm-59-2h58V58H35v22z" class="color594454 svgShape"></path><path fill="#594454" d="M100 58H28c-.6 0-1-.4-1-1v-8.1c0-.6.4-1 1-1h72c.6 0 1 .4 1 1V57c0 .6-.5 1-1 1zm-71-2h70v-6.1H29V56z" class="color594454 svgShape"></path><path fill="#594454" d="M100 49.9H28c-.6 0-1-.4-1-1v-4c0-.6.4-1 1-1h72c.6 0 1 .4 1 1v4c0 .6-.5 1-1 1zm-71-2h70v-2H29v2zM38 94h-4c-.6 0-1-.4-1-1v-4c0-1.7 1.3-3 3-3s3 1.3 3 3v4c0 .6-.5 1-1 1zm-3-2h2v-3c0-.6-.4-1-1-1s-1 .4-1 1v3zM38 104h-4c-.6 0-1-.4-1-1v-4c0-1.7 1.3-3 3-3s3 1.3 3 3v4c0 .6-.5 1-1 1zm-3-2h2v-3c0-.6-.4-1-1-1s-1 .4-1 1v3zM38 114h-4c-.6 0-1-.4-1-1v-4c0-1.7 1.3-3 3-3s3 1.3 3 3v4c0 .6-.5 1-1 1zm-3-2h2v-3c0-.6-.4-1-1-1s-1 .4-1 1v3zM38 124h-4c-.6 0-1-.4-1-1v-4c0-1.7 1.3-3 3-3s3 1.3 3 3v4c0 .6-.5 1-1 1zm-3-2h2v-3c0-.6-.4-1-1-1s-1 .4-1 1v3zM94 104h-4c-.6 0-1-.4-1-1v-4c0-1.7 1.3-3 3-3s3 1.3 3 3v4c0 .6-.5 1-1 1zm-3-2h2v-3c0-.6-.4-1-1-1s-1 .4-1 1v3zM94 124h-4c-.6 0-1-.4-1-1v-4c0-1.7 1.3-3 3-3s3 1.3 3 3v4c0 .6-.5 1-1 1zm-3-2h2v-3c0-.6-.4-1-1-1s-1 .4-1 1v3z" class="color594454 svgShape"></path><path fill="#594454" d="M38 94h-4c-.6 0-1-.4-1-1v-4c0-1.7 1.3-3 3-3s3 1.3 3 3v4c0 .6-.5 1-1 1zm-3-2h2v-3c0-.6-.4-1-1-1s-1 .4-1 1v3zM38 104h-4c-.6 0-1-.4-1-1v-4c0-1.7 1.3-3 3-3s3 1.3 3 3v4c0 .6-.5 1-1 1zm-3-2h2v-3c0-.6-.4-1-1-1s-1 .4-1 1v3zM38 114h-4c-.6 0-1-.4-1-1v-4c0-1.7 1.3-3 3-3s3 1.3 3 3v4c0 .6-.5 1-1 1zm-3-2h2v-3c0-.6-.4-1-1-1s-1 .4-1 1v3zM38 124h-4c-.6 0-1-.4-1-1v-4c0-1.7 1.3-3 3-3s3 1.3 3 3v4c0 .6-.5 1-1 1zm-3-2h2v-3c0-.6-.4-1-1-1s-1 .4-1 1v3zM94 104h-4c-.6 0-1-.4-1-1v-4c0-1.7 1.3-3 3-3s3 1.3 3 3v4c0 .6-.5 1-1 1zm-3-2h2v-3c0-.6-.4-1-1-1s-1 .4-1 1v3zM94 124h-4c-.6 0-1-.4-1-1v-4c0-1.7 1.3-3 3-3s3 1.3 3 3v4c0 .6-.5 1-1 1zm-3-2h2v-3c0-.6-.4-1-1-1s-1 .4-1 1v3z" class="color594454 svgShape"></path><path fill="#726571" d="M28 71c-1.1 0-2 .9-2 2v2c0-1.1.9-2 2-2s2 .9 2 2v-2c0-1.1-.9-2-2-2zm72 0c-1.1 0-2 .9-2 2v2c0-1.1.9-2 2-2s2 .9 2 2v-2c0-1.1-.9-2-2-2zm0-10c-1.1 0-2 .9-2 2v2c0-1.1.9-2 2-2s2 .9 2 2v-2c0-1.1-.9-2-2-2zm8 10c-1.1 0-2 .9-2 2v2c0-1.1.9-2 2-2s2 .9 2 2v-2c0-1.1-.9-2-2-2zm0-10c-1.1 0-2 .9-2 2v2c0-1.1.9-2 2-2s2 .9 2 2v-2c0-1.1-.9-2-2-2zM20 71c-1.1 0-2 .9-2 2v2c0-1.1.9-2 2-2s2 .9 2 2v-2c0-1.1-.9-2-2-2zm0-10c-1.1 0-2 .9-2 2v2c0-1.1.9-2 2-2s2 .9 2 2v-2c0-1.1-.9-2-2-2zm8 0c-1.1 0-2 .9-2 2v2c0-1.1.9-2 2-2s2 .9 2 2v-2c0-1.1-.9-2-2-2z" class="color726571 svgShape"></path><path fill="#594454" d="M38 94h-4c-.6 0-1-.4-1-1v-4c0-1.7 1.3-3 3-3s3 1.3 3 3v4c0 .6-.5 1-1 1zm-3-2h2v-3c0-.6-.4-1-1-1s-1 .4-1 1v3zM38 104h-4c-.6 0-1-.4-1-1v-4c0-1.7 1.3-3 3-3s3 1.3 3 3v4c0 .6-.5 1-1 1zm-3-2h2v-3c0-.6-.4-1-1-1s-1 .4-1 1v3zM22 78h-4c-.6 0-1-.4-1-1v-4c0-1.7 1.3-3 3-3s3 1.3 3 3v4c0 .6-.5 1-1 1zm-3-2h2v-3c0-.6-.4-1-1-1s-1 .4-1 1v3zM22 68h-4c-.6 0-1-.4-1-1v-4c0-1.7 1.3-3 3-3s3 1.3 3 3v4c0 .6-.5 1-1 1zm-3-2h2v-3c0-.6-.4-1-1-1s-1 .4-1 1v3zM30 78h-4c-.6 0-1-.4-1-1v-4c0-1.7 1.3-3 3-3s3 1.3 3 3v4c0 .6-.5 1-1 1zm-3-2h2v-3c0-.6-.4-1-1-1s-1 .4-1 1v3zM30 68h-4c-.6 0-1-.4-1-1v-4c0-1.7 1.3-3 3-3s3 1.3 3 3v4c0 .6-.5 1-1 1zm-3-2h2v-3c0-.6-.4-1-1-1s-1 .4-1 1v3zM102 78h-4c-.6 0-1-.4-1-1v-4c0-1.7 1.3-3 3-3s3 1.3 3 3v4c0 .6-.5 1-1 1zm-3-2h2v-3c0-.6-.4-1-1-1s-1 .4-1 1v3zM102 68h-4c-.6 0-1-.4-1-1v-4c0-1.7 1.3-3 3-3s3 1.3 3 3v4c0 .6-.5 1-1 1zm-3-2h2v-3c0-.6-.4-1-1-1s-1 .4-1 1v3zM110 78h-4c-.6 0-1-.4-1-1v-4c0-1.7 1.3-3 3-3s3 1.3 3 3v4c0 .6-.5 1-1 1zm-3-2h2v-3c0-.6-.4-1-1-1s-1 .4-1 1v3zM110 68h-4c-.6 0-1-.4-1-1v-4c0-1.7 1.3-3 3-3s3 1.3 3 3v4c0 .6-.5 1-1 1zm-3-2h2v-3c0-.6-.4-1-1-1s-1 .4-1 1v3zM38 58h-4c-.6 0-1-.4-1-1v-2c0-1.7 1.3-3 3-3s3 1.3 3 3v2c0 .6-.5 1-1 1zm-3-2h2v-1c0-.6-.4-1-1-1s-1 .4-1 1v1zM46 58h-4c-.6 0-1-.4-1-1v-2c0-1.7 1.3-3 3-3s3 1.3 3 3v2c0 .6-.5 1-1 1zm-3-2h2v-1c0-.6-.4-1-1-1s-1 .4-1 1v1zM54 58h-4c-.6 0-1-.4-1-1v-2c0-1.7 1.3-3 3-3s3 1.3 3 3v2c0 .6-.5 1-1 1zm-3-2h2v-1c0-.6-.4-1-1-1s-1 .4-1 1v1zM62 58h-4c-.6 0-1-.4-1-1v-2c0-1.7 1.3-3 3-3s3 1.3 3 3v2c0 .6-.5 1-1 1zm-3-2h2v-1c0-.6-.4-1-1-1s-1 .4-1 1v1zM70 58h-4c-.6 0-1-.4-1-1v-2c0-1.7 1.3-3 3-3s3 1.3 3 3v2c0 .6-.5 1-1 1zm-3-2h2v-1c0-.6-.4-1-1-1s-1 .4-1 1v1zM78 58h-4c-.6 0-1-.4-1-1v-2c0-1.7 1.3-3 3-3s3 1.3 3 3v2c0 .6-.5 1-1 1zm-3-2h2v-1c0-.6-.4-1-1-1s-1 .4-1 1v1zM86 58h-4c-.6 0-1-.4-1-1v-2c0-1.7 1.3-3 3-3s3 1.3 3 3v2c0 .6-.5 1-1 1zm-3-2h2v-1c0-.6-.4-1-1-1s-1 .4-1 1v1zM94 58h-4c-.6 0-1-.4-1-1v-2c0-1.7 1.3-3 3-3s3 1.3 3 3v2c0 .6-.5 1-1 1zm-3-2h2v-1c0-.6-.4-1-1-1s-1 .4-1 1v1zM24 40c-.6 0-1-.4-1-1v-2c0-.6.4-1 1-1s1 .4 1 1v2c0 .6-.5 1-1 1zM20 41c-.6 0-1-.4-1-1v-3c0-.6.4-1 1-1s1 .4 1 1v3c0 .6-.5 1-1 1zM28 41c-.6 0-1-.4-1-1v-3c0-.6.4-1 1-1s1 .4 1 1v3c0 .6-.5 1-1 1z" class="color594454 svgShape"></path><path fill="#594454" d="M24 41c-.6 0-1-.4-1-1v-3c0-.6.4-1 1-1s1 .4 1 1v3c0 .6-.5 1-1 1zM112 42H96c-.6 0-1-.4-1-1v-8c0-.6.4-1 1-1h16c.6 0 1 .4 1 1v8c0 .6-.5 1-1 1zm-15-2h14v-6H97v6z" class="color594454 svgShape"></path><path fill="#594454" d="M104 41c-.6 0-1-.4-1-1v-3c0-.6.4-1 1-1s1 .4 1 1v3c0 .6-.5 1-1 1zM100 41c-.6 0-1-.4-1-1v-3c0-.6.4-1 1-1s1 .4 1 1v3c0 .6-.5 1-1 1zM108 41c-.6 0-1-.4-1-1v-3c0-.6.4-1 1-1s1 .4 1 1v3c0 .6-.5 1-1 1zM114 82H94c-.6 0-1-.4-1-1V57c0-.6.4-1 1-1h20c.6 0 1 .4 1 1v24c0 .6-.5 1-1 1zm-19-2h18V58H95v22z" class="color594454 svgShape"></path><path fill="#594454" d="M98 128H86c-.6 0-1-.4-1-1V81c0-.6.4-1 1-1h12c.6 0 1 .4 1 1v46c0 .6-.5 1-1 1zm-11-2h10V82H87v44z" class="color594454 svgShape"></path><path fill="#594454" d="M110 128H98c-.6 0-1-.4-1-1V81c0-.6.4-1 1-1h12c.6 0 1 .4 1 1v46c0 .6-.5 1-1 1zm-11-2h10V82H99v44zM48 92c-1.7 0-3-1.3-3-3s1.3-3 3-3 3 1.3 3 3-1.4 3-3 3zm0-4c-.6 0-1 .4-1 1s.4 1 1 1 1-.4 1-1-.5-1-1-1zM80 92c-1.7 0-3-1.3-3-3s1.3-3 3-3 3 1.3 3 3-1.4 3-3 3zm0-4c-.6 0-1 .4-1 1s.4 1 1 1 1-.4 1-1-.5-1-1-1zM64 72c-1.7 0-3-1.3-3-3s1.3-3 3-3 3 1.3 3 3-1.4 3-3 3zm0-4c-.6 0-1 .4-1 1s.4 1 1 1 1-.4 1-1-.5-1-1-1zM46 84c-.6 0-1-.4-1-1v-2c0-.6.4-1 1-1s1 .4 1 1v2c0 .6-.5 1-1 1zM50 84c-.6 0-1-.4-1-1v-2c0-.6.4-1 1-1s1 .4 1 1v2c0 .6-.5 1-1 1zM34 84c-.6 0-1-.4-1-1v-2c0-.6.4-1 1-1s1 .4 1 1v2c0 .6-.5 1-1 1zM38 84c-.6 0-1-.4-1-1v-2c0-.6.4-1 1-1s1 .4 1 1v2c0 .6-.5 1-1 1zM46 60c-.6 0-1-.4-1-1v-2c0-.6.4-1 1-1s1 .4 1 1v2c0 .6-.5 1-1 1zM42 60c-.6 0-1-.4-1-1v-2c0-.6.4-1 1-1s1 .4 1 1v2c0 .6-.5 1-1 1zM50 60c-.6 0-1-.4-1-1v-2c0-.6.4-1 1-1s1 .4 1 1v2c0 .6-.5 1-1 1zM38 60c-.6 0-1-.4-1-1v-2c0-.6.4-1 1-1s1 .4 1 1v2c0 .6-.5 1-1 1zM62 60c-.6 0-1-.4-1-1v-2c0-.6.4-1 1-1s1 .4 1 1v2c0 .6-.5 1-1 1zM58 60c-.6 0-1-.4-1-1v-2c0-.6.4-1 1-1s1 .4 1 1v2c0 .6-.5 1-1 1zM66 60c-.6 0-1-.4-1-1v-2c0-.6.4-1 1-1s1 .4 1 1v2c0 .6-.5 1-1 1zM54 60c-.6 0-1-.4-1-1v-2c0-.6.4-1 1-1s1 .4 1 1v2c0 .6-.5 1-1 1zM78 60c-.6 0-1-.4-1-1v-2c0-.6.4-1 1-1s1 .4 1 1v2c0 .6-.5 1-1 1zM74 60c-.6 0-1-.4-1-1v-2c0-.6.4-1 1-1s1 .4 1 1v2c0 .6-.5 1-1 1zM82 60c-.6 0-1-.4-1-1v-2c0-.6.4-1 1-1s1 .4 1 1v2c0 .6-.5 1-1 1zM70 60c-.6 0-1-.4-1-1v-2c0-.6.4-1 1-1s1 .4 1 1v2c0 .6-.5 1-1 1zM90 60c-.6 0-1-.4-1-1v-2c0-.6.4-1 1-1s1 .4 1 1v2c0 .6-.5 1-1 1zM86 60c-.6 0-1-.4-1-1v-2c0-.6.4-1 1-1s1 .4 1 1v2c0 .6-.5 1-1 1zM54 84c-.6 0-1-.4-1-1v-2c0-.6.4-1 1-1s1 .4 1 1v2c0 .6-.5 1-1 1zM58 84c-.6 0-1-.4-1-1v-2c0-.6.4-1 1-1s1 .4 1 1v2c0 .6-.5 1-1 1zM62 84c-.6 0-1-.4-1-1v-2c0-.6.4-1 1-1s1 .4 1 1v2c0 .6-.5 1-1 1zM66 84c-.6 0-1-.4-1-1v-2c0-.6.4-1 1-1s1 .4 1 1v2c0 .6-.5 1-1 1zM70 84c-.6 0-1-.4-1-1v-2c0-.6.4-1 1-1s1 .4 1 1v2c0 .6-.5 1-1 1zM74 84c-.6 0-1-.4-1-1v-2c0-.6.4-1 1-1s1 .4 1 1v2c0 .6-.5 1-1 1zM78 84c-.6 0-1-.4-1-1v-2c0-.6.4-1 1-1s1 .4 1 1v2c0 .6-.5 1-1 1zM82 84c-.6 0-1-.4-1-1v-2c0-.6.4-1 1-1s1 .4 1 1v2c0 .6-.5 1-1 1zM90 84c-.6 0-1-.4-1-1v-2c0-.6.4-1 1-1s1 .4 1 1v2c0 .6-.5 1-1 1zM94 84c-.6 0-1-.4-1-1v-2c0-.6.4-1 1-1s1 .4 1 1v2c0 .6-.5 1-1 1zM28 18.6c-.6 0-1-.4-1-1v-7.3c0-1.5-.8-2.9-2-3.7L24 6l-1 .7c-1.2.8-2 2.2-2 3.6v7.3c0 .6-.4 1-1 1s-1-.4-1-1v-7.3c0-2.2 1.1-4.2 2.9-5.3l1.6-1c.3-.2.7-.2 1.1 0L26 5c1.8 1.2 2.9 3.2 2.9 5.3v7.3c.1.6-.4 1-.9 1z" class="color594454 svgShape"></path><path fill="#594454" d="M24 6c-.6 0-1-.4-1-1V1c0-.6.4-1 1-1s1 .4 1 1v4c0 .6-.5 1-1 1zM24 18c-.6 0-1-.4-1-1v-2c0-.6.4-1 1-1s1 .4 1 1v2c0 .6-.5 1-1 1zM22 24c-.6 0-1-.4-1-1v-1c0-.6.4-1 1-1s1 .4 1 1v1c0 .6-.5 1-1 1zM26 24c-.6 0-1-.4-1-1v-1c0-.6.4-1 1-1s1 .4 1 1v1c0 .6-.5 1-1 1zM28 12h-7c-.6 0-1-.4-1-1s.4-1 1-1h7c.6 0 1 .4 1 1s-.5 1-1 1zM108 34h-8c-.6 0-1-.4-1-1v-9c0-.6.4-1 1-1h8c.6 0 1 .4 1 1v9c0 .6-.5 1-1 1zm-7-2h6v-7h-6v7z" class="color594454 svgShape"></path><path fill="#594454" d="M110 25H98c-.6 0-1-.4-1-1v-6c0-.6.4-1 1-1h12c.6 0 1 .4 1 1v6c0 .6-.5 1-1 1zm-11-2h10v-4H99v4z" class="color594454 svgShape"></path><path fill="#594454" d="M108 18.6c-.6 0-1-.4-1-1v-7.3c0-1.5-.8-2.9-2-3.7l-1-.6-1 .7c-1.2.8-2 2.2-2 3.6v7.3c0 .6-.4 1-1 1s-1-.4-1-1v-7.3c0-2.2 1.1-4.2 2.9-5.3l1.6-1c.3-.2.7-.2 1.1 0l1.5 1c1.8 1.2 2.9 3.2 2.9 5.3v7.3c0 .6-.5 1-1 1z" class="color594454 svgShape"></path><path fill="#594454" d="M104 6c-.6 0-1-.4-1-1V1c0-.6.4-1 1-1s1 .4 1 1v4c0 .6-.5 1-1 1zM104 18c-.6 0-1-.4-1-1v-2c0-.6.4-1 1-1s1 .4 1 1v2c0 .6-.5 1-1 1zM102 24c-.6 0-1-.4-1-1v-1c0-.6.4-1 1-1s1 .4 1 1v1c0 .6-.5 1-1 1zM106 24c-.6 0-1-.4-1-1v-1c0-.6.4-1 1-1s1 .4 1 1v1c0 .6-.5 1-1 1zM108 12h-7c-.6 0-1-.4-1-1s.4-1 1-1h7c.6 0 1 .4 1 1s-.5 1-1 1z" class="color594454 svgShape"></path><path fill="#726571" d="M74.1 65S70 66.5 70 71v4c0-4.5 4.1-6 4.1-6s3.9 1.5 3.9 6v-4c0-4.5-3.9-6-3.9-6zm12 0S82 66.5 82 71v4c0-4.5 4.1-6 4.1-6s3.9 1.5 3.9 6v-4c0-4.5-3.9-6-3.9-6z" class="color726571 svgShape"></path><path fill="#594454" d="M78 83c-.6 0-1-.4-1-1V71c0-3-2.1-4.5-2.9-4.9-.9.5-3.1 1.9-3.1 4.9v11c0 .6-.4 1-1 1s-1-.4-1-1V71c0-5.1 4.6-6.9 4.8-6.9.2-.1.5-.1.7 0 .2.1 4.5 1.8 4.5 6.9v11c0 .6-.5 1-1 1zM90 83c-.6 0-1-.4-1-1V71c0-3-2.1-4.5-2.9-4.9-.9.5-3.1 1.9-3.1 4.9v11c0 .6-.4 1-1 1s-1-.4-1-1V71c0-5.1 4.6-6.9 4.8-6.9.2-.1.5-.1.7 0 .2.1 4.5 1.8 4.5 6.9v11c0 .6-.5 1-1 1z" class="color594454 svgShape"></path><path fill="#726571" d="M36 107c-1.1 0-2 .9-2 2v3c0-1.1.9-2 2-2s2 .9 2 2v-3c0-1.1-.9-2-2-2zm0 10c-1.1 0-2 .9-2 2v3c0-1.1.9-2 2-2s2 .9 2 2v-3c0-1.1-.9-2-2-2zm56-30c-1.1 0-2 .9-2 2v3c0-1.1.9-2 2-2s2 .9 2 2v-3c0-1.1-.9-2-2-2zm0 10c-1.1 0-2 .9-2 2v3c0-1.1.9-2 2-2s2 .9 2 2v-3c0-1.1-.9-2-2-2zm0 10c-1.1 0-2 .9-2 2v3c0-1.1.9-2 2-2s2 .9 2 2v-3c0-1.1-.9-2-2-2zm0 10c-1.1 0-2 .9-2 2v3c0-1.1.9-2 2-2s2 .9 2 2v-3c0-1.1-.9-2-2-2z" class="color726571 svgShape"></path><path fill="#594454" d="M38 114h-4c-.6 0-1-.4-1-1v-4c0-1.7 1.3-3 3-3s3 1.3 3 3v4c0 .6-.5 1-1 1zm-3-2h2v-3c0-.6-.4-1-1-1s-1 .4-1 1v3zM38 124h-4c-.6 0-1-.4-1-1v-4c0-1.7 1.3-3 3-3s3 1.3 3 3v4c0 .6-.5 1-1 1zm-3-2h2v-3c0-.6-.4-1-1-1s-1 .4-1 1v3zM94 94h-4c-.6 0-1-.4-1-1v-4c0-1.7 1.3-3 3-3s3 1.3 3 3v4c0 .6-.5 1-1 1zm-3-2h2v-3c0-.6-.4-1-1-1s-1 .4-1 1v3zM94 104h-4c-.6 0-1-.4-1-1v-4c0-1.7 1.3-3 3-3s3 1.3 3 3v4c0 .6-.5 1-1 1zm-3-2h2v-3c0-.6-.4-1-1-1s-1 .4-1 1v3zM94 124h-4c-.6 0-1-.4-1-1v-4c0-1.7 1.3-3 3-3s3 1.3 3 3v4c0 .6-.5 1-1 1zm-3-2h2v-3c0-.6-.4-1-1-1s-1 .4-1 1v3zM94 114h-4c-.6 0-1-.4-1-1v-4c0-1.7 1.3-3 3-3s3 1.3 3 3v4c0 .6-.5 1-1 1zm-3-2h2v-3c0-.6-.4-1-1-1s-1 .4-1 1v3z" class="color594454 svgShape"></path></svg></g></svg>